<svg xmlns="http://www.w3.org/2000/svg" width="1000" height="1232" viewBox="0 0 1000 1232" fill="none">
  <path d="M 56.91 9.825 L 103.277 9.825 L 103.277 0 L 104.134 0 L 104.134 9.825 L 149.572 9.825 L 149.572 0 L 150.429 0 L 150.429 9.825 L 195.869 9.825 L 195.869 0 L 196.725 0 L 196.725 9.825 L 243.092 9.825 L 243.092 0 L 243.948 0 L 243.948 9.825 L 289.388 9.825 L 289.388 0 L 290.244 0 L 290.244 9.825 L 336.607 9.825 L 336.607 0 L 337.464 0 L 337.464 9.825 L 382.907 9.825 L 382.907 0 L 383.763 0 L 383.763 9.825 L 429.202 9.825 L 429.202 0 L 430.059 0 L 430.059 9.825 L 476.423 9.825 L 476.423 0 L 477.279 0 L 477.279 9.825 L 522.721 9.825 L 522.721 0 L 523.578 0 L 523.578 9.825 L 569.942 9.825 L 569.942 0 L 570.799 0 L 570.799 9.825 L 616.237 9.825 L 616.237 0 L 617.094 0 L 617.094 9.825 L 662.537 9.825 L 662.537 0 L 663.393 0 L 663.393 9.825 L 709.757 9.825 L 709.757 0 L 710.613 0 L 710.613 9.825 L 756.053 9.825 L 756.053 0 L 756.909 0 L 756.909 9.825 L 803.276 9.825 L 803.276 0 L 804.132 0 L 804.132 9.825 L 849.572 9.825 L 849.572 0 L 850.428 0 L 850.428 9.825 L 895.867 9.825 L 895.867 0 L 896.724 0 L 896.724 9.825 L 943.091 9.825 L 943.091 0 L 943.948 0 L 943.948 9.825 L 1000 9.825 L 1000 10.68 L 943.948 10.68 L 943.948 56.413 L 1000 56.413 L 1000 57.268 L 943.948 57.268 L 943.948 103 L 1000 103 L 1000 103.855 L 943.948 103.855 L 943.948 149.59 L 1000 149.59 L 1000 150.445 L 943.948 150.445 L 943.948 196.176 L 1000 196.176 L 1000 197.031 L 943.948 197.031 L 943.948 242.766 L 1000 242.766 L 1000 243.621 L 943.948 243.621 L 943.948 289.867 L 1000 289.867 L 1000 290.722 L 943.948 290.722 L 943.948 336.454 L 1000 336.454 L 1000 337.309 L 943.948 337.309 L 943.948 383.042 L 1000 383.042 L 1000 383.897 L 943.948 383.897 L 943.948 429.631 L 1000 429.631 L 1000 430.486 L 943.948 430.486 L 943.948 476.221 L 1000 476.221 L 1000 477.076 L 943.948 477.076 L 943.948 522.807 L 1000 522.807 L 1000 523.662 L 943.948 523.662 L 943.948 569.395 L 1000 569.395 L 1000 570.25 L 943.948 570.25 L 943.948 615.983 L 1000 615.983 L 1000 616.838 L 943.948 616.838 L 943.948 662.573 L 1000 662.573 L 1000 663.428 L 943.948 663.428 L 943.948 709.159 L 1000 709.159 L 1000 710.014 L 943.948 710.014 L 943.948 755.749 L 1000 755.749 L 1000 756.604 L 943.948 756.604 L 943.948 802.336 L 1000 802.336 L 1000 803.191 L 943.948 803.191 L 943.948 848.926 L 1000 848.926 L 1000 849.781 L 943.948 849.781 L 943.948 895.512 L 1000 895.512 L 1000 896.367 L 943.948 896.367 L 943.948 942.1 L 1000 942.1 L 1000 942.955 L 943.948 942.955 L 943.948 988.688 L 1000 988.688 L 1000 989.543 L 943.948 989.543 L 943.948 1035.278 L 1000 1035.278 L 1000 1036.133 L 943.948 1036.133 L 943.948 1081.866 L 1000 1081.866 L 1000 1082.721 L 943.948 1082.721 L 943.948 1128.454 L 1000 1128.454 L 1000 1129.309 L 943.948 1129.309 L 943.948 1175.042 L 1000 1175.042 L 1000 1175.897 L 943.948 1175.897 L 943.948 1232 L 943.091 1232 L 943.091 1175.897 L 896.724 1175.897 L 896.724 1232 L 895.867 1232 L 895.867 1175.897 L 850.428 1175.897 L 850.428 1232 L 849.572 1232 L 849.572 1175.897 L 804.132 1175.897 L 804.132 1232 L 803.276 1232 L 803.276 1175.897 L 756.909 1175.897 L 756.909 1232 L 756.053 1232 L 756.053 1175.897 L 710.613 1175.897 L 710.613 1232 L 709.757 1232 L 709.757 1175.897 L 663.393 1175.897 L 663.393 1232 L 662.537 1232 L 662.537 1175.897 L 617.094 1175.897 L 617.094 1232 L 616.237 1232 L 616.237 1175.897 L 570.799 1175.897 L 570.799 1232 L 569.942 1232 L 569.942 1175.897 L 523.578 1175.897 L 523.578 1232 L 522.721 1232 L 522.721 1175.897 L 477.279 1175.897 L 477.279 1232 L 476.423 1232 L 476.423 1175.897 L 430.059 1175.897 L 430.059 1232 L 429.202 1232 L 429.202 1175.897 L 383.763 1175.897 L 383.763 1232 L 382.907 1232 L 382.907 1175.897 L 337.464 1175.897 L 337.464 1232 L 336.607 1232 L 336.607 1175.897 L 290.244 1175.897 L 290.244 1232 L 289.388 1232 L 289.388 1175.897 L 243.948 1175.897 L 243.948 1232 L 243.092 1232 L 243.092 1175.897 L 196.725 1175.897 L 196.725 1232 L 195.869 1232 L 195.869 1175.897 L 150.429 1175.897 L 150.429 1232 L 149.572 1232 L 149.572 1175.897 L 104.134 1175.897 L 104.134 1232 L 103.277 1232 L 103.277 1175.897 L 56.91 1175.897 L 56.91 1232 L 56.053 1232 L 56.053 1175.897 L 0 1175.897 L 0 1175.042 L 56.053 1175.042 L 56.053 1129.309 L 0 1129.309 L 0 1128.454 L 56.053 1128.454 L 56.053 1082.721 L 0 1082.721 L 0 1081.866 L 56.053 1081.866 L 56.053 1036.133 L 0 1036.133 L 0 1035.278 L 56.053 1035.278 L 56.053 989.543 L 0 989.543 L 0 988.688 L 56.053 988.688 L 56.053 942.955 L 0 942.955 L 0 942.1 L 56.053 942.1 L 56.053 896.367 L 0 896.367 L 0 895.512 L 56.053 895.512 L 56.053 849.781 L 0 849.781 L 0 848.926 L 56.053 848.926 L 56.053 803.191 L 0 803.191 L 0 802.336 L 56.053 802.336 L 56.053 756.604 L 0 756.604 L 0 755.749 L 56.053 755.749 L 56.053 710.014 L 0 710.014 L 0 709.159 L 56.053 709.159 L 56.053 663.428 L 0 663.428 L 0 662.573 L 56.053 662.573 L 56.053 616.838 L 0 616.838 L 0 615.983 L 56.053 615.983 L 56.053 570.25 L 0 570.25 L 0 569.395 L 56.053 569.395 L 56.053 523.662 L 0 523.662 L 0 522.807 L 56.053 522.807 L 56.053 477.076 L 0 477.076 L 0 476.221 L 56.053 476.221 L 56.053 430.486 L 0 430.486 L 0 429.631 L 56.053 429.631 L 56.053 383.897 L 0 383.897 L 0 383.042 L 56.053 383.042 L 56.053 337.309 L 0 337.309 L 0 336.454 L 56.053 336.454 L 56.053 290.722 L 0 290.722 L 0 289.867 L 56.053 289.867 L 56.053 243.621 L 0 243.621 L 0 242.766 L 56.053 242.766 L 56.053 197.031 L 0 197.031 L 0 196.176 L 56.053 196.176 L 56.053 150.445 L 0 150.445 L 0 149.59 L 56.053 149.59 L 56.053 103.855 L 0 103.855 L 0 103 L 56.053 103 L 56.053 57.268 L 0 57.268 L 0 56.413 L 56.053 56.413 L 56.053 10.68 L 0 10.68 L 0 9.825 L 56.053 9.825 L 56.053 0 L 56.91 0 L 56.91 9.825 Z M 56.91 1175.042 L 103.277 1175.042 L 103.277 1129.309 L 56.91 1129.309 L 56.91 1175.042 Z M 104.134 1175.042 L 149.572 1175.042 L 149.572 1129.309 L 104.134 1129.309 L 104.134 1175.042 Z M 150.429 1175.042 L 195.869 1175.042 L 195.869 1129.309 L 150.429 1129.309 L 150.429 1175.042 Z M 196.725 1175.042 L 243.092 1175.042 L 243.092 1129.309 L 196.725 1129.309 L 196.725 1175.042 Z M 243.948 1175.042 L 289.388 1175.042 L 289.388 1129.309 L 243.948 1129.309 L 243.948 1175.042 Z M 290.244 1175.042 L 336.607 1175.042 L 336.607 1129.309 L 290.244 1129.309 L 290.244 1175.042 Z M 337.464 1175.042 L 382.907 1175.042 L 382.907 1129.309 L 337.464 1129.309 L 337.464 1175.042 Z M 383.763 1175.042 L 429.202 1175.042 L 429.202 1129.309 L 383.763 1129.309 L 383.763 1175.042 Z M 430.059 1175.042 L 476.423 1175.042 L 476.423 1129.309 L 430.059 1129.309 L 430.059 1175.042 Z M 477.279 1175.042 L 522.721 1175.042 L 522.721 1129.309 L 477.279 1129.309 L 477.279 1175.042 Z M 523.578 1175.042 L 569.942 1175.042 L 569.942 1129.309 L 523.578 1129.309 L 523.578 1175.042 Z M 570.799 1175.042 L 616.237 1175.042 L 616.237 1129.309 L 570.799 1129.309 L 570.799 1175.042 Z M 617.094 1175.042 L 662.537 1175.042 L 662.537 1129.309 L 617.094 1129.309 L 617.094 1175.042 Z M 663.393 1175.042 L 709.757 1175.042 L 709.757 1129.309 L 663.393 1129.309 L 663.393 1175.042 Z M 710.613 1175.042 L 756.053 1175.042 L 756.053 1129.309 L 710.613 1129.309 L 710.613 1175.042 Z M 756.909 1175.042 L 803.276 1175.042 L 803.276 1129.309 L 756.909 1129.309 L 756.909 1175.042 Z M 804.132 1175.042 L 849.572 1175.042 L 849.572 1129.309 L 804.132 1129.309 L 804.132 1175.042 Z M 850.428 1175.042 L 895.867 1175.042 L 895.867 1129.309 L 850.428 1129.309 L 850.428 1175.042 Z M 896.724 1175.042 L 943.091 1175.042 L 943.091 1129.309 L 896.724 1129.309 L 896.724 1175.042 Z M 56.91 1128.454 L 103.277 1128.454 L 103.277 1082.721 L 56.91 1082.721 L 56.91 1128.454 Z M 104.134 1128.454 L 149.572 1128.454 L 149.572 1082.721 L 104.134 1082.721 L 104.134 1128.454 Z M 150.429 1128.454 L 195.869 1128.454 L 195.869 1082.721 L 150.429 1082.721 L 150.429 1128.454 Z M 196.725 1128.454 L 243.092 1128.454 L 243.092 1082.721 L 196.725 1082.721 L 196.725 1128.454 Z M 243.948 1128.454 L 289.388 1128.454 L 289.388 1082.721 L 243.948 1082.721 L 243.948 1128.454 Z M 290.244 1128.454 L 336.607 1128.454 L 336.607 1082.721 L 290.244 1082.721 L 290.244 1128.454 Z M 337.464 1128.454 L 382.907 1128.454 L 382.907 1082.721 L 337.464 1082.721 L 337.464 1128.454 Z M 383.763 1128.454 L 429.202 1128.454 L 429.202 1082.721 L 383.763 1082.721 L 383.763 1128.454 Z M 430.059 1128.454 L 476.423 1128.454 L 476.423 1082.721 L 430.059 1082.721 L 430.059 1128.454 Z M 477.279 1128.454 L 522.721 1128.454 L 522.721 1082.721 L 477.279 1082.721 L 477.279 1128.454 Z M 523.578 1128.454 L 569.942 1128.454 L 569.942 1082.721 L 523.578 1082.721 L 523.578 1128.454 Z M 570.799 1128.454 L 616.237 1128.454 L 616.237 1082.721 L 570.799 1082.721 L 570.799 1128.454 Z M 617.094 1128.454 L 662.537 1128.454 L 662.537 1082.721 L 617.094 1082.721 L 617.094 1128.454 Z M 663.393 1128.454 L 709.757 1128.454 L 709.757 1082.721 L 663.393 1082.721 L 663.393 1128.454 Z M 710.613 1128.454 L 756.053 1128.454 L 756.053 1082.721 L 710.613 1082.721 L 710.613 1128.454 Z M 756.909 1128.454 L 803.276 1128.454 L 803.276 1082.721 L 756.909 1082.721 L 756.909 1128.454 Z M 804.132 1128.454 L 849.572 1128.454 L 849.572 1082.721 L 804.132 1082.721 L 804.132 1128.454 Z M 850.428 1128.454 L 895.867 1128.454 L 895.867 1082.721 L 850.428 1082.721 L 850.428 1128.454 Z M 896.724 1128.454 L 943.091 1128.454 L 943.091 1082.721 L 896.724 1082.721 L 896.724 1128.454 Z M 56.91 1081.866 L 103.277 1081.866 L 103.277 1036.133 L 56.91 1036.133 L 56.91 1081.866 Z M 104.134 1081.866 L 149.572 1081.866 L 149.572 1036.133 L 104.134 1036.133 L 104.134 1081.866 Z M 150.429 1081.866 L 195.869 1081.866 L 195.869 1036.133 L 150.429 1036.133 L 150.429 1081.866 Z M 196.725 1081.866 L 243.092 1081.866 L 243.092 1036.133 L 196.725 1036.133 L 196.725 1081.866 Z M 243.948 1081.866 L 289.388 1081.866 L 289.388 1036.133 L 243.948 1036.133 L 243.948 1081.866 Z M 290.244 1081.866 L 336.607 1081.866 L 336.607 1036.133 L 290.244 1036.133 L 290.244 1081.866 Z M 337.464 1081.866 L 382.907 1081.866 L 382.907 1036.133 L 337.464 1036.133 L 337.464 1081.866 Z M 383.763 1081.866 L 429.202 1081.866 L 429.202 1036.133 L 383.763 1036.133 L 383.763 1081.866 Z M 430.059 1081.866 L 476.423 1081.866 L 476.423 1036.133 L 430.059 1036.133 L 430.059 1081.866 Z M 477.279 1081.866 L 522.721 1081.866 L 522.721 1036.133 L 477.279 1036.133 L 477.279 1081.866 Z M 523.578 1081.866 L 569.942 1081.866 L 569.942 1036.133 L 523.578 1036.133 L 523.578 1081.866 Z M 570.799 1081.866 L 616.237 1081.866 L 616.237 1036.133 L 570.799 1036.133 L 570.799 1081.866 Z M 617.094 1081.866 L 662.537 1081.866 L 662.537 1036.133 L 617.094 1036.133 L 617.094 1081.866 Z M 663.393 1081.866 L 709.757 1081.866 L 709.757 1036.133 L 663.393 1036.133 L 663.393 1081.866 Z M 710.613 1081.866 L 756.053 1081.866 L 756.053 1036.133 L 710.613 1036.133 L 710.613 1081.866 Z M 756.909 1081.866 L 803.276 1081.866 L 803.276 1036.133 L 756.909 1036.133 L 756.909 1081.866 Z M 804.132 1081.866 L 849.572 1081.866 L 849.572 1036.133 L 804.132 1036.133 L 804.132 1081.866 Z M 850.428 1081.866 L 895.867 1081.866 L 895.867 1036.133 L 850.428 1036.133 L 850.428 1081.866 Z M 896.724 1081.866 L 943.091 1081.866 L 943.091 1036.133 L 896.724 1036.133 L 896.724 1081.866 Z M 56.91 1035.278 L 103.277 1035.278 L 103.277 989.543 L 56.91 989.543 L 56.91 1035.278 Z M 104.134 1035.278 L 149.572 1035.278 L 149.572 989.543 L 104.134 989.543 L 104.134 1035.278 Z M 150.429 1035.278 L 195.869 1035.278 L 195.869 989.543 L 150.429 989.543 L 150.429 1035.278 Z M 196.725 1035.278 L 243.092 1035.278 L 243.092 989.543 L 196.725 989.543 L 196.725 1035.278 Z M 243.948 1035.278 L 289.388 1035.278 L 289.388 989.543 L 243.948 989.543 L 243.948 1035.278 Z M 290.244 1035.278 L 336.607 1035.278 L 336.607 989.543 L 290.244 989.543 L 290.244 1035.278 Z M 337.464 1035.278 L 382.907 1035.278 L 382.907 989.543 L 337.464 989.543 L 337.464 1035.278 Z M 383.763 1035.278 L 429.202 1035.278 L 429.202 989.543 L 383.763 989.543 L 383.763 1035.278 Z M 430.059 1035.278 L 476.423 1035.278 L 476.423 989.543 L 430.059 989.543 L 430.059 1035.278 Z M 477.279 1035.278 L 522.721 1035.278 L 522.721 989.543 L 477.279 989.543 L 477.279 1035.278 Z M 523.578 1035.278 L 569.942 1035.278 L 569.942 989.543 L 523.578 989.543 L 523.578 1035.278 Z M 570.799 1035.278 L 616.237 1035.278 L 616.237 989.543 L 570.799 989.543 L 570.799 1035.278 Z M 617.094 1035.278 L 662.537 1035.278 L 662.537 989.543 L 617.094 989.543 L 617.094 1035.278 Z M 663.393 1035.278 L 709.757 1035.278 L 709.757 989.543 L 663.393 989.543 L 663.393 1035.278 Z M 710.613 1035.278 L 756.053 1035.278 L 756.053 989.543 L 710.613 989.543 L 710.613 1035.278 Z M 756.909 1035.278 L 803.276 1035.278 L 803.276 989.543 L 756.909 989.543 L 756.909 1035.278 Z M 804.132 1035.278 L 849.572 1035.278 L 849.572 989.543 L 804.132 989.543 L 804.132 1035.278 Z M 850.428 1035.278 L 895.867 1035.278 L 895.867 989.543 L 850.428 989.543 L 850.428 1035.278 Z M 896.724 1035.278 L 943.091 1035.278 L 943.091 989.543 L 896.724 989.543 L 896.724 1035.278 Z M 56.91 988.688 L 103.277 988.688 L 103.277 942.955 L 56.91 942.955 L 56.91 988.688 Z M 104.134 988.688 L 149.572 988.688 L 149.572 942.955 L 104.134 942.955 L 104.134 988.688 Z M 150.429 988.688 L 195.869 988.688 L 195.869 942.955 L 150.429 942.955 L 150.429 988.688 Z M 196.725 988.688 L 243.092 988.688 L 243.092 942.955 L 196.725 942.955 L 196.725 988.688 Z M 243.948 988.688 L 289.388 988.688 L 289.388 942.955 L 243.948 942.955 L 243.948 988.688 Z M 290.244 988.688 L 336.607 988.688 L 336.607 942.955 L 290.244 942.955 L 290.244 988.688 Z M 337.464 988.688 L 382.907 988.688 L 382.907 942.955 L 337.464 942.955 L 337.464 988.688 Z M 383.763 988.688 L 429.202 988.688 L 429.202 942.955 L 383.763 942.955 L 383.763 988.688 Z M 430.059 988.688 L 476.423 988.688 L 476.423 942.955 L 430.059 942.955 L 430.059 988.688 Z M 477.279 988.688 L 522.721 988.688 L 522.721 942.955 L 477.279 942.955 L 477.279 988.688 Z M 523.578 988.688 L 569.942 988.688 L 569.942 942.955 L 523.578 942.955 L 523.578 988.688 Z M 570.799 988.688 L 616.237 988.688 L 616.237 942.955 L 570.799 942.955 L 570.799 988.688 Z M 617.094 988.688 L 662.537 988.688 L 662.537 942.955 L 617.094 942.955 L 617.094 988.688 Z M 663.393 988.688 L 709.757 988.688 L 709.757 942.955 L 663.393 942.955 L 663.393 988.688 Z M 710.613 988.688 L 756.053 988.688 L 756.053 942.955 L 710.613 942.955 L 710.613 988.688 Z M 756.909 988.688 L 803.276 988.688 L 803.276 942.955 L 756.909 942.955 L 756.909 988.688 Z M 804.132 988.688 L 849.572 988.688 L 849.572 942.955 L 804.132 942.955 L 804.132 988.688 Z M 850.428 988.688 L 895.867 988.688 L 895.867 942.955 L 850.428 942.955 L 850.428 988.688 Z M 896.724 988.688 L 943.091 988.688 L 943.091 942.955 L 896.724 942.955 L 896.724 988.688 Z M 56.91 942.1 L 103.277 942.1 L 103.277 896.367 L 56.91 896.367 L 56.91 942.1 Z M 104.134 942.1 L 149.572 942.1 L 149.572 896.367 L 104.134 896.367 L 104.134 942.1 Z M 150.429 942.1 L 195.869 942.1 L 195.869 896.367 L 150.429 896.367 L 150.429 942.1 Z M 196.725 942.1 L 243.092 942.1 L 243.092 896.367 L 196.725 896.367 L 196.725 942.1 Z M 243.948 942.1 L 289.388 942.1 L 289.388 896.367 L 243.948 896.367 L 243.948 942.1 Z M 290.244 942.1 L 336.607 942.1 L 336.607 896.367 L 290.244 896.367 L 290.244 942.1 Z M 337.464 942.1 L 382.907 942.1 L 382.907 896.367 L 337.464 896.367 L 337.464 942.1 Z M 383.763 942.1 L 429.202 942.1 L 429.202 896.367 L 383.763 896.367 L 383.763 942.1 Z M 430.059 942.1 L 476.423 942.1 L 476.423 896.367 L 430.059 896.367 L 430.059 942.1 Z M 477.279 942.1 L 522.721 942.1 L 522.721 896.367 L 477.279 896.367 L 477.279 942.1 Z M 523.578 942.1 L 569.942 942.1 L 569.942 896.367 L 523.578 896.367 L 523.578 942.1 Z M 570.799 942.1 L 616.237 942.1 L 616.237 896.367 L 570.799 896.367 L 570.799 942.1 Z M 617.094 942.1 L 662.537 942.1 L 662.537 896.367 L 617.094 896.367 L 617.094 942.1 Z M 663.393 942.1 L 709.757 942.1 L 709.757 896.367 L 663.393 896.367 L 663.393 942.1 Z M 710.613 942.1 L 756.053 942.1 L 756.053 896.367 L 710.613 896.367 L 710.613 942.1 Z M 756.909 942.1 L 803.276 942.1 L 803.276 896.367 L 756.909 896.367 L 756.909 942.1 Z M 804.132 942.1 L 849.572 942.1 L 849.572 896.367 L 804.132 896.367 L 804.132 942.1 Z M 850.428 942.1 L 895.867 942.1 L 895.867 896.367 L 850.428 896.367 L 850.428 942.1 Z M 896.724 942.1 L 943.091 942.1 L 943.091 896.367 L 896.724 896.367 L 896.724 942.1 Z M 56.91 895.512 L 103.277 895.512 L 103.277 849.781 L 56.91 849.781 L 56.91 895.512 Z M 104.134 895.512 L 149.572 895.512 L 149.572 849.781 L 104.134 849.781 L 104.134 895.512 Z M 150.429 895.512 L 195.869 895.512 L 195.869 849.781 L 150.429 849.781 L 150.429 895.512 Z M 196.725 895.512 L 243.092 895.512 L 243.092 849.781 L 196.725 849.781 L 196.725 895.512 Z M 243.948 895.512 L 289.388 895.512 L 289.388 849.781 L 243.948 849.781 L 243.948 895.512 Z M 290.244 895.512 L 336.607 895.512 L 336.607 849.781 L 290.244 849.781 L 290.244 895.512 Z M 337.464 895.512 L 382.907 895.512 L 382.907 849.781 L 337.464 849.781 L 337.464 895.512 Z M 383.763 895.512 L 429.202 895.512 L 429.202 849.781 L 383.763 849.781 L 383.763 895.512 Z M 430.059 895.512 L 476.423 895.512 L 476.423 849.781 L 430.059 849.781 L 430.059 895.512 Z M 477.279 895.512 L 522.721 895.512 L 522.721 849.781 L 477.279 849.781 L 477.279 895.512 Z M 523.578 895.512 L 569.942 895.512 L 569.942 849.781 L 523.578 849.781 L 523.578 895.512 Z M 570.799 895.512 L 616.237 895.512 L 616.237 849.781 L 570.799 849.781 L 570.799 895.512 Z M 617.094 895.512 L 662.537 895.512 L 662.537 849.781 L 617.094 849.781 L 617.094 895.512 Z M 663.393 895.512 L 709.757 895.512 L 709.757 849.781 L 663.393 849.781 L 663.393 895.512 Z M 710.613 895.512 L 756.053 895.512 L 756.053 849.781 L 710.613 849.781 L 710.613 895.512 Z M 756.909 895.512 L 803.276 895.512 L 803.276 849.781 L 756.909 849.781 L 756.909 895.512 Z M 804.132 895.512 L 849.572 895.512 L 849.572 849.781 L 804.132 849.781 L 804.132 895.512 Z M 850.428 895.512 L 895.867 895.512 L 895.867 849.781 L 850.428 849.781 L 850.428 895.512 Z M 896.724 895.512 L 943.091 895.512 L 943.091 849.781 L 896.724 849.781 L 896.724 895.512 Z M 56.91 848.926 L 103.277 848.926 L 103.277 803.191 L 56.91 803.191 L 56.91 848.926 Z M 104.134 848.926 L 149.572 848.926 L 149.572 803.191 L 104.134 803.191 L 104.134 848.926 Z M 150.429 848.926 L 195.869 848.926 L 195.869 803.191 L 150.429 803.191 L 150.429 848.926 Z M 196.725 848.926 L 243.092 848.926 L 243.092 803.191 L 196.725 803.191 L 196.725 848.926 Z M 243.948 848.926 L 289.388 848.926 L 289.388 803.191 L 243.948 803.191 L 243.948 848.926 Z M 290.244 848.926 L 336.607 848.926 L 336.607 803.191 L 290.244 803.191 L 290.244 848.926 Z M 337.464 848.926 L 382.907 848.926 L 382.907 803.191 L 337.464 803.191 L 337.464 848.926 Z M 383.763 848.926 L 429.202 848.926 L 429.202 803.191 L 383.763 803.191 L 383.763 848.926 Z M 430.059 848.926 L 476.423 848.926 L 476.423 803.191 L 430.059 803.191 L 430.059 848.926 Z M 477.279 848.926 L 522.721 848.926 L 522.721 803.191 L 477.279 803.191 L 477.279 848.926 Z M 523.578 848.926 L 569.942 848.926 L 569.942 803.191 L 523.578 803.191 L 523.578 848.926 Z M 570.799 848.926 L 616.237 848.926 L 616.237 803.191 L 570.799 803.191 L 570.799 848.926 Z M 617.094 848.926 L 662.537 848.926 L 662.537 803.191 L 617.094 803.191 L 617.094 848.926 Z M 663.393 848.926 L 709.757 848.926 L 709.757 803.191 L 663.393 803.191 L 663.393 848.926 Z M 710.613 848.926 L 756.053 848.926 L 756.053 803.191 L 710.613 803.191 L 710.613 848.926 Z M 756.909 848.926 L 803.276 848.926 L 803.276 803.191 L 756.909 803.191 L 756.909 848.926 Z M 804.132 848.926 L 849.572 848.926 L 849.572 803.191 L 804.132 803.191 L 804.132 848.926 Z M 850.428 848.926 L 895.867 848.926 L 895.867 803.191 L 850.428 803.191 L 850.428 848.926 Z M 896.724 848.926 L 943.091 848.926 L 943.091 803.191 L 896.724 803.191 L 896.724 848.926 Z M 56.91 802.336 L 103.277 802.336 L 103.277 756.604 L 56.91 756.604 L 56.91 802.336 Z M 104.134 802.336 L 149.572 802.336 L 149.572 756.604 L 104.134 756.604 L 104.134 802.336 Z M 150.429 802.336 L 195.869 802.336 L 195.869 756.604 L 150.429 756.604 L 150.429 802.336 Z M 196.725 802.336 L 243.092 802.336 L 243.092 756.604 L 196.725 756.604 L 196.725 802.336 Z M 243.948 802.336 L 289.388 802.336 L 289.388 756.604 L 243.948 756.604 L 243.948 802.336 Z M 290.244 802.336 L 336.607 802.336 L 336.607 756.604 L 290.244 756.604 L 290.244 802.336 Z M 337.464 802.336 L 382.907 802.336 L 382.907 756.604 L 337.464 756.604 L 337.464 802.336 Z M 383.763 802.336 L 429.202 802.336 L 429.202 756.604 L 383.763 756.604 L 383.763 802.336 Z M 430.059 802.336 L 476.423 802.336 L 476.423 756.604 L 430.059 756.604 L 430.059 802.336 Z M 477.279 802.336 L 522.721 802.336 L 522.721 756.604 L 477.279 756.604 L 477.279 802.336 Z M 523.578 802.336 L 569.942 802.336 L 569.942 756.604 L 523.578 756.604 L 523.578 802.336 Z M 570.799 802.336 L 616.237 802.336 L 616.237 756.604 L 570.799 756.604 L 570.799 802.336 Z M 617.094 802.336 L 662.537 802.336 L 662.537 756.604 L 617.094 756.604 L 617.094 802.336 Z M 663.393 802.336 L 709.757 802.336 L 709.757 756.604 L 663.393 756.604 L 663.393 802.336 Z M 710.613 802.336 L 756.053 802.336 L 756.053 756.604 L 710.613 756.604 L 710.613 802.336 Z M 756.909 802.336 L 803.276 802.336 L 803.276 756.604 L 756.909 756.604 L 756.909 802.336 Z M 804.132 802.336 L 849.572 802.336 L 849.572 756.604 L 804.132 756.604 L 804.132 802.336 Z M 850.428 802.336 L 895.867 802.336 L 895.867 756.604 L 850.428 756.604 L 850.428 802.336 Z M 896.724 802.336 L 943.091 802.336 L 943.091 756.604 L 896.724 756.604 L 896.724 802.336 Z M 56.91 755.749 L 103.277 755.749 L 103.277 710.014 L 56.91 710.014 L 56.91 755.749 Z M 104.134 755.749 L 149.572 755.749 L 149.572 710.014 L 104.134 710.014 L 104.134 755.749 Z M 150.429 755.749 L 195.869 755.749 L 195.869 710.014 L 150.429 710.014 L 150.429 755.749 Z M 196.725 755.749 L 243.092 755.749 L 243.092 710.014 L 196.725 710.014 L 196.725 755.749 Z M 243.948 755.749 L 289.388 755.749 L 289.388 710.014 L 243.948 710.014 L 243.948 755.749 Z M 290.244 755.749 L 336.607 755.749 L 336.607 710.014 L 290.244 710.014 L 290.244 755.749 Z M 337.464 755.749 L 382.907 755.749 L 382.907 710.014 L 337.464 710.014 L 337.464 755.749 Z M 383.763 755.749 L 429.202 755.749 L 429.202 710.014 L 383.763 710.014 L 383.763 755.749 Z M 430.059 755.749 L 476.423 755.749 L 476.423 710.014 L 430.059 710.014 L 430.059 755.749 Z M 477.279 755.749 L 522.721 755.749 L 522.721 710.014 L 477.279 710.014 L 477.279 755.749 Z M 523.578 755.749 L 569.942 755.749 L 569.942 710.014 L 523.578 710.014 L 523.578 755.749 Z M 570.799 755.749 L 616.237 755.749 L 616.237 710.014 L 570.799 710.014 L 570.799 755.749 Z M 617.094 755.749 L 662.537 755.749 L 662.537 710.014 L 617.094 710.014 L 617.094 755.749 Z M 663.393 755.749 L 709.757 755.749 L 709.757 710.014 L 663.393 710.014 L 663.393 755.749 Z M 710.613 755.749 L 756.053 755.749 L 756.053 710.014 L 710.613 710.014 L 710.613 755.749 Z M 756.909 755.749 L 803.276 755.749 L 803.276 710.014 L 756.909 710.014 L 756.909 755.749 Z M 804.132 755.749 L 849.572 755.749 L 849.572 710.014 L 804.132 710.014 L 804.132 755.749 Z M 850.428 755.749 L 895.867 755.749 L 895.867 710.014 L 850.428 710.014 L 850.428 755.749 Z M 896.724 755.749 L 943.091 755.749 L 943.091 710.014 L 896.724 710.014 L 896.724 755.749 Z M 56.91 709.159 L 103.277 709.159 L 103.277 663.428 L 56.91 663.428 L 56.91 709.159 Z M 104.134 709.159 L 149.572 709.159 L 149.572 663.428 L 104.134 663.428 L 104.134 709.159 Z M 150.429 709.159 L 195.869 709.159 L 195.869 663.428 L 150.429 663.428 L 150.429 709.159 Z M 196.725 709.159 L 243.092 709.159 L 243.092 663.428 L 196.725 663.428 L 196.725 709.159 Z M 243.948 709.159 L 289.388 709.159 L 289.388 663.428 L 243.948 663.428 L 243.948 709.159 Z M 290.244 709.159 L 336.607 709.159 L 336.607 663.428 L 290.244 663.428 L 290.244 709.159 Z M 337.464 709.159 L 382.907 709.159 L 382.907 663.428 L 337.464 663.428 L 337.464 709.159 Z M 383.763 709.159 L 429.202 709.159 L 429.202 663.428 L 383.763 663.428 L 383.763 709.159 Z M 430.059 709.159 L 476.423 709.159 L 476.423 663.428 L 430.059 663.428 L 430.059 709.159 Z M 477.279 709.159 L 522.721 709.159 L 522.721 663.428 L 477.279 663.428 L 477.279 709.159 Z M 523.578 709.159 L 569.942 709.159 L 569.942 663.428 L 523.578 663.428 L 523.578 709.159 Z M 570.799 709.159 L 616.237 709.159 L 616.237 663.428 L 570.799 663.428 L 570.799 709.159 Z M 617.094 709.159 L 662.537 709.159 L 662.537 663.428 L 617.094 663.428 L 617.094 709.159 Z M 663.393 709.159 L 709.757 709.159 L 709.757 663.428 L 663.393 663.428 L 663.393 709.159 Z M 710.613 709.159 L 756.053 709.159 L 756.053 663.428 L 710.613 663.428 L 710.613 709.159 Z M 756.909 709.159 L 803.276 709.159 L 803.276 663.428 L 756.909 663.428 L 756.909 709.159 Z M 804.132 709.159 L 849.572 709.159 L 849.572 663.428 L 804.132 663.428 L 804.132 709.159 Z M 850.428 709.159 L 895.867 709.159 L 895.867 663.428 L 850.428 663.428 L 850.428 709.159 Z M 896.724 709.159 L 943.091 709.159 L 943.091 663.428 L 896.724 663.428 L 896.724 709.159 Z M 56.91 662.573 L 103.277 662.573 L 103.277 616.838 L 56.91 616.838 L 56.91 662.573 Z M 104.134 662.573 L 149.572 662.573 L 149.572 616.838 L 104.134 616.838 L 104.134 662.573 Z M 150.429 662.573 L 195.869 662.573 L 195.869 616.838 L 150.429 616.838 L 150.429 662.573 Z M 196.725 662.573 L 243.092 662.573 L 243.092 616.838 L 196.725 616.838 L 196.725 662.573 Z M 243.948 662.573 L 289.388 662.573 L 289.388 616.838 L 243.948 616.838 L 243.948 662.573 Z M 290.244 662.573 L 336.607 662.573 L 336.607 616.838 L 290.244 616.838 L 290.244 662.573 Z M 337.464 662.573 L 382.907 662.573 L 382.907 616.838 L 337.464 616.838 L 337.464 662.573 Z M 383.763 662.573 L 429.202 662.573 L 429.202 616.838 L 383.763 616.838 L 383.763 662.573 Z M 430.059 662.573 L 476.423 662.573 L 476.423 616.838 L 430.059 616.838 L 430.059 662.573 Z M 477.279 662.573 L 522.721 662.573 L 522.721 616.838 L 477.279 616.838 L 477.279 662.573 Z M 523.578 662.573 L 569.942 662.573 L 569.942 616.838 L 523.578 616.838 L 523.578 662.573 Z M 570.799 662.573 L 616.237 662.573 L 616.237 616.838 L 570.799 616.838 L 570.799 662.573 Z M 617.094 662.573 L 662.537 662.573 L 662.537 616.838 L 617.094 616.838 L 617.094 662.573 Z M 663.393 662.573 L 709.757 662.573 L 709.757 616.838 L 663.393 616.838 L 663.393 662.573 Z M 710.613 662.573 L 756.053 662.573 L 756.053 616.838 L 710.613 616.838 L 710.613 662.573 Z M 756.909 662.573 L 803.276 662.573 L 803.276 616.838 L 756.909 616.838 L 756.909 662.573 Z M 804.132 662.573 L 849.572 662.573 L 849.572 616.838 L 804.132 616.838 L 804.132 662.573 Z M 850.428 662.573 L 895.867 662.573 L 895.867 616.838 L 850.428 616.838 L 850.428 662.573 Z M 896.724 662.573 L 943.091 662.573 L 943.091 616.838 L 896.724 616.838 L 896.724 662.573 Z M 56.91 615.983 L 103.277 615.983 L 103.277 570.25 L 56.91 570.25 L 56.91 615.983 Z M 104.134 615.983 L 149.572 615.983 L 149.572 570.25 L 104.134 570.25 L 104.134 615.983 Z M 150.429 615.983 L 195.869 615.983 L 195.869 570.25 L 150.429 570.25 L 150.429 615.983 Z M 196.725 615.983 L 243.092 615.983 L 243.092 570.25 L 196.725 570.25 L 196.725 615.983 Z M 243.948 615.983 L 289.388 615.983 L 289.388 570.25 L 243.948 570.25 L 243.948 615.983 Z M 290.244 615.983 L 336.607 615.983 L 336.607 570.25 L 290.244 570.25 L 290.244 615.983 Z M 337.464 615.983 L 382.907 615.983 L 382.907 570.25 L 337.464 570.25 L 337.464 615.983 Z M 383.763 615.983 L 429.202 615.983 L 429.202 570.25 L 383.763 570.25 L 383.763 615.983 Z M 430.059 615.983 L 476.423 615.983 L 476.423 570.25 L 430.059 570.25 L 430.059 615.983 Z M 477.279 615.983 L 522.721 615.983 L 522.721 570.25 L 477.279 570.25 L 477.279 615.983 Z M 523.578 615.983 L 569.942 615.983 L 569.942 570.25 L 523.578 570.25 L 523.578 615.983 Z M 570.799 615.983 L 616.237 615.983 L 616.237 570.25 L 570.799 570.25 L 570.799 615.983 Z M 617.094 615.983 L 662.537 615.983 L 662.537 570.25 L 617.094 570.25 L 617.094 615.983 Z M 663.393 615.983 L 709.757 615.983 L 709.757 570.25 L 663.393 570.25 L 663.393 615.983 Z M 710.613 615.983 L 756.053 615.983 L 756.053 570.25 L 710.613 570.25 L 710.613 615.983 Z M 756.909 615.983 L 803.276 615.983 L 803.276 570.25 L 756.909 570.25 L 756.909 615.983 Z M 804.132 615.983 L 849.572 615.983 L 849.572 570.25 L 804.132 570.25 L 804.132 615.983 Z M 850.428 615.983 L 895.867 615.983 L 895.867 570.25 L 850.428 570.25 L 850.428 615.983 Z M 896.724 615.983 L 943.091 615.983 L 943.091 570.25 L 896.724 570.25 L 896.724 615.983 Z M 56.91 569.395 L 103.277 569.395 L 103.277 523.662 L 56.91 523.662 L 56.91 569.395 Z M 104.134 569.395 L 149.572 569.395 L 149.572 523.662 L 104.134 523.662 L 104.134 569.395 Z M 150.429 569.395 L 195.869 569.395 L 195.869 523.662 L 150.429 523.662 L 150.429 569.395 Z M 196.725 569.395 L 243.092 569.395 L 243.092 523.662 L 196.725 523.662 L 196.725 569.395 Z M 243.948 569.395 L 289.388 569.395 L 289.388 523.662 L 243.948 523.662 L 243.948 569.395 Z M 290.244 569.395 L 336.607 569.395 L 336.607 523.662 L 290.244 523.662 L 290.244 569.395 Z M 337.464 569.395 L 382.907 569.395 L 382.907 523.662 L 337.464 523.662 L 337.464 569.395 Z M 383.763 569.395 L 429.202 569.395 L 429.202 523.662 L 383.763 523.662 L 383.763 569.395 Z M 430.059 569.395 L 476.423 569.395 L 476.423 523.662 L 430.059 523.662 L 430.059 569.395 Z M 477.279 569.395 L 522.721 569.395 L 522.721 523.662 L 477.279 523.662 L 477.279 569.395 Z M 523.578 569.395 L 569.942 569.395 L 569.942 523.662 L 523.578 523.662 L 523.578 569.395 Z M 570.799 569.395 L 616.237 569.395 L 616.237 523.662 L 570.799 523.662 L 570.799 569.395 Z M 617.094 569.395 L 662.537 569.395 L 662.537 523.662 L 617.094 523.662 L 617.094 569.395 Z M 663.393 569.395 L 709.757 569.395 L 709.757 523.662 L 663.393 523.662 L 663.393 569.395 Z M 710.613 569.395 L 756.053 569.395 L 756.053 523.662 L 710.613 523.662 L 710.613 569.395 Z M 756.909 569.395 L 803.276 569.395 L 803.276 523.662 L 756.909 523.662 L 756.909 569.395 Z M 804.132 569.395 L 849.572 569.395 L 849.572 523.662 L 804.132 523.662 L 804.132 569.395 Z M 850.428 569.395 L 895.867 569.395 L 895.867 523.662 L 850.428 523.662 L 850.428 569.395 Z M 896.724 569.395 L 943.091 569.395 L 943.091 523.662 L 896.724 523.662 L 896.724 569.395 Z M 56.91 522.807 L 103.277 522.807 L 103.277 477.076 L 56.91 477.076 L 56.91 522.807 Z M 104.134 522.807 L 149.572 522.807 L 149.572 477.076 L 104.134 477.076 L 104.134 522.807 Z M 150.429 522.807 L 195.869 522.807 L 195.869 477.076 L 150.429 477.076 L 150.429 522.807 Z M 196.725 522.807 L 243.092 522.807 L 243.092 477.076 L 196.725 477.076 L 196.725 522.807 Z M 243.948 522.807 L 289.388 522.807 L 289.388 477.076 L 243.948 477.076 L 243.948 522.807 Z M 290.244 522.807 L 336.607 522.807 L 336.607 477.076 L 290.244 477.076 L 290.244 522.807 Z M 337.464 522.807 L 382.907 522.807 L 382.907 477.076 L 337.464 477.076 L 337.464 522.807 Z M 383.763 522.807 L 429.202 522.807 L 429.202 477.076 L 383.763 477.076 L 383.763 522.807 Z M 430.059 522.807 L 476.423 522.807 L 476.423 477.076 L 430.059 477.076 L 430.059 522.807 Z M 477.279 522.807 L 522.721 522.807 L 522.721 477.076 L 477.279 477.076 L 477.279 522.807 Z M 523.578 522.807 L 569.942 522.807 L 569.942 477.076 L 523.578 477.076 L 523.578 522.807 Z M 570.799 522.807 L 616.237 522.807 L 616.237 477.076 L 570.799 477.076 L 570.799 522.807 Z M 617.094 522.807 L 662.537 522.807 L 662.537 477.076 L 617.094 477.076 L 617.094 522.807 Z M 663.393 522.807 L 709.757 522.807 L 709.757 477.076 L 663.393 477.076 L 663.393 522.807 Z M 710.613 522.807 L 756.053 522.807 L 756.053 477.076 L 710.613 477.076 L 710.613 522.807 Z M 756.909 522.807 L 803.276 522.807 L 803.276 477.076 L 756.909 477.076 L 756.909 522.807 Z M 804.132 522.807 L 849.572 522.807 L 849.572 477.076 L 804.132 477.076 L 804.132 522.807 Z M 850.428 522.807 L 895.867 522.807 L 895.867 477.076 L 850.428 477.076 L 850.428 522.807 Z M 896.724 522.807 L 943.091 522.807 L 943.091 477.076 L 896.724 477.076 L 896.724 522.807 Z M 56.91 476.221 L 103.277 476.221 L 103.277 430.486 L 56.91 430.486 L 56.91 476.221 Z M 104.134 476.221 L 149.572 476.221 L 149.572 430.486 L 104.134 430.486 L 104.134 476.221 Z M 150.429 476.221 L 195.869 476.221 L 195.869 430.486 L 150.429 430.486 L 150.429 476.221 Z M 196.725 476.221 L 243.092 476.221 L 243.092 430.486 L 196.725 430.486 L 196.725 476.221 Z M 243.948 476.221 L 289.388 476.221 L 289.388 430.486 L 243.948 430.486 L 243.948 476.221 Z M 290.244 476.221 L 336.607 476.221 L 336.607 430.486 L 290.244 430.486 L 290.244 476.221 Z M 337.464 476.221 L 382.907 476.221 L 382.907 430.486 L 337.464 430.486 L 337.464 476.221 Z M 383.763 476.221 L 429.202 476.221 L 429.202 430.486 L 383.763 430.486 L 383.763 476.221 Z M 430.059 476.221 L 476.423 476.221 L 476.423 430.486 L 430.059 430.486 L 430.059 476.221 Z M 477.279 476.221 L 522.721 476.221 L 522.721 430.486 L 477.279 430.486 L 477.279 476.221 Z M 523.578 476.221 L 569.942 476.221 L 569.942 430.486 L 523.578 430.486 L 523.578 476.221 Z M 570.799 476.221 L 616.237 476.221 L 616.237 430.486 L 570.799 430.486 L 570.799 476.221 Z M 617.094 476.221 L 662.537 476.221 L 662.537 430.486 L 617.094 430.486 L 617.094 476.221 Z M 663.393 476.221 L 709.757 476.221 L 709.757 430.486 L 663.393 430.486 L 663.393 476.221 Z M 710.613 476.221 L 756.053 476.221 L 756.053 430.486 L 710.613 430.486 L 710.613 476.221 Z M 756.909 476.221 L 803.276 476.221 L 803.276 430.486 L 756.909 430.486 L 756.909 476.221 Z M 804.132 476.221 L 849.572 476.221 L 849.572 430.486 L 804.132 430.486 L 804.132 476.221 Z M 850.428 476.221 L 895.867 476.221 L 895.867 430.486 L 850.428 430.486 L 850.428 476.221 Z M 896.724 476.221 L 943.091 476.221 L 943.091 430.486 L 896.724 430.486 L 896.724 476.221 Z M 56.91 429.631 L 103.277 429.631 L 103.277 383.897 L 56.91 383.897 L 56.91 429.631 Z M 104.134 429.631 L 149.572 429.631 L 149.572 383.897 L 104.134 383.897 L 104.134 429.631 Z M 150.429 429.631 L 195.869 429.631 L 195.869 383.897 L 150.429 383.897 L 150.429 429.631 Z M 196.725 429.631 L 243.092 429.631 L 243.092 383.897 L 196.725 383.897 L 196.725 429.631 Z M 243.948 429.631 L 289.388 429.631 L 289.388 383.897 L 243.948 383.897 L 243.948 429.631 Z M 290.244 429.631 L 336.607 429.631 L 336.607 383.897 L 290.244 383.897 L 290.244 429.631 Z M 337.464 429.631 L 382.907 429.631 L 382.907 383.897 L 337.464 383.897 L 337.464 429.631 Z M 383.763 429.631 L 429.202 429.631 L 429.202 383.897 L 383.763 383.897 L 383.763 429.631 Z M 430.059 429.631 L 476.423 429.631 L 476.423 383.897 L 430.059 383.897 L 430.059 429.631 Z M 477.279 429.631 L 522.721 429.631 L 522.721 383.897 L 477.279 383.897 L 477.279 429.631 Z M 523.578 429.631 L 569.942 429.631 L 569.942 383.897 L 523.578 383.897 L 523.578 429.631 Z M 570.799 429.631 L 616.237 429.631 L 616.237 383.897 L 570.799 383.897 L 570.799 429.631 Z M 617.094 429.631 L 662.537 429.631 L 662.537 383.897 L 617.094 383.897 L 617.094 429.631 Z M 663.393 429.631 L 709.757 429.631 L 709.757 383.897 L 663.393 383.897 L 663.393 429.631 Z M 710.613 429.631 L 756.053 429.631 L 756.053 383.897 L 710.613 383.897 L 710.613 429.631 Z M 756.909 429.631 L 803.276 429.631 L 803.276 383.897 L 756.909 383.897 L 756.909 429.631 Z M 804.132 429.631 L 849.572 429.631 L 849.572 383.897 L 804.132 383.897 L 804.132 429.631 Z M 850.428 429.631 L 895.867 429.631 L 895.867 383.897 L 850.428 383.897 L 850.428 429.631 Z M 896.724 429.631 L 943.091 429.631 L 943.091 383.897 L 896.724 383.897 L 896.724 429.631 Z M 56.91 383.042 L 103.277 383.042 L 103.277 337.309 L 56.91 337.309 L 56.91 383.042 Z M 104.134 383.042 L 149.572 383.042 L 149.572 337.309 L 104.134 337.309 L 104.134 383.042 Z M 150.429 383.042 L 195.869 383.042 L 195.869 337.309 L 150.429 337.309 L 150.429 383.042 Z M 196.725 383.042 L 243.092 383.042 L 243.092 337.309 L 196.725 337.309 L 196.725 383.042 Z M 243.948 383.042 L 289.388 383.042 L 289.388 337.309 L 243.948 337.309 L 243.948 383.042 Z M 290.244 383.042 L 336.607 383.042 L 336.607 337.309 L 290.244 337.309 L 290.244 383.042 Z M 337.464 383.042 L 382.907 383.042 L 382.907 337.309 L 337.464 337.309 L 337.464 383.042 Z M 383.763 383.042 L 429.202 383.042 L 429.202 337.309 L 383.763 337.309 L 383.763 383.042 Z M 430.059 383.042 L 476.423 383.042 L 476.423 337.309 L 430.059 337.309 L 430.059 383.042 Z M 477.279 383.042 L 522.721 383.042 L 522.721 337.309 L 477.279 337.309 L 477.279 383.042 Z M 523.578 383.042 L 569.942 383.042 L 569.942 337.309 L 523.578 337.309 L 523.578 383.042 Z M 570.799 383.042 L 616.237 383.042 L 616.237 337.309 L 570.799 337.309 L 570.799 383.042 Z M 617.094 383.042 L 662.537 383.042 L 662.537 337.309 L 617.094 337.309 L 617.094 383.042 Z M 663.393 383.042 L 709.757 383.042 L 709.757 337.309 L 663.393 337.309 L 663.393 383.042 Z M 710.613 383.042 L 756.053 383.042 L 756.053 337.309 L 710.613 337.309 L 710.613 383.042 Z M 756.909 383.042 L 803.276 383.042 L 803.276 337.309 L 756.909 337.309 L 756.909 383.042 Z M 804.132 383.042 L 849.572 383.042 L 849.572 337.309 L 804.132 337.309 L 804.132 383.042 Z M 850.428 383.042 L 895.867 383.042 L 895.867 337.309 L 850.428 337.309 L 850.428 383.042 Z M 896.724 383.042 L 943.091 383.042 L 943.091 337.309 L 896.724 337.309 L 896.724 383.042 Z M 56.91 336.454 L 103.277 336.454 L 103.277 290.722 L 56.91 290.722 L 56.91 336.454 Z M 104.134 336.454 L 149.572 336.454 L 149.572 290.722 L 104.134 290.722 L 104.134 336.454 Z M 150.429 336.454 L 195.869 336.454 L 195.869 290.722 L 150.429 290.722 L 150.429 336.454 Z M 196.725 336.454 L 243.092 336.454 L 243.092 290.722 L 196.725 290.722 L 196.725 336.454 Z M 243.948 336.454 L 289.388 336.454 L 289.388 290.722 L 243.948 290.722 L 243.948 336.454 Z M 290.244 336.454 L 336.607 336.454 L 336.607 290.722 L 290.244 290.722 L 290.244 336.454 Z M 337.464 336.454 L 382.907 336.454 L 382.907 290.722 L 337.464 290.722 L 337.464 336.454 Z M 383.763 336.454 L 429.202 336.454 L 429.202 290.722 L 383.763 290.722 L 383.763 336.454 Z M 430.059 336.454 L 476.423 336.454 L 476.423 290.722 L 430.059 290.722 L 430.059 336.454 Z M 477.279 336.454 L 522.721 336.454 L 522.721 290.722 L 477.279 290.722 L 477.279 336.454 Z M 523.578 336.454 L 569.942 336.454 L 569.942 290.722 L 523.578 290.722 L 523.578 336.454 Z M 570.799 336.454 L 616.237 336.454 L 616.237 290.722 L 570.799 290.722 L 570.799 336.454 Z M 617.094 336.454 L 662.537 336.454 L 662.537 290.722 L 617.094 290.722 L 617.094 336.454 Z M 663.393 336.454 L 709.757 336.454 L 709.757 290.722 L 663.393 290.722 L 663.393 336.454 Z M 710.613 336.454 L 756.053 336.454 L 756.053 290.722 L 710.613 290.722 L 710.613 336.454 Z M 756.909 336.454 L 803.276 336.454 L 803.276 290.722 L 756.909 290.722 L 756.909 336.454 Z M 804.132 336.454 L 849.572 336.454 L 849.572 290.722 L 804.132 290.722 L 804.132 336.454 Z M 850.428 336.454 L 895.867 336.454 L 895.867 290.722 L 850.428 290.722 L 850.428 336.454 Z M 896.724 336.454 L 943.091 336.454 L 943.091 290.722 L 896.724 290.722 L 896.724 336.454 Z M 56.91 289.867 L 103.277 289.867 L 103.277 243.621 L 56.91 243.621 L 56.91 289.867 Z M 104.134 289.867 L 149.572 289.867 L 149.572 243.621 L 104.134 243.621 L 104.134 289.867 Z M 150.429 289.867 L 195.869 289.867 L 195.869 243.621 L 150.429 243.621 L 150.429 289.867 Z M 196.725 289.867 L 243.092 289.867 L 243.092 243.621 L 196.725 243.621 L 196.725 289.867 Z M 243.948 289.867 L 289.388 289.867 L 289.388 243.621 L 243.948 243.621 L 243.948 289.867 Z M 290.244 289.867 L 336.607 289.867 L 336.607 243.621 L 290.244 243.621 L 290.244 289.867 Z M 337.464 289.867 L 382.907 289.867 L 382.907 243.621 L 337.464 243.621 L 337.464 289.867 Z M 383.763 289.867 L 429.202 289.867 L 429.202 243.621 L 383.763 243.621 L 383.763 289.867 Z M 430.059 289.867 L 476.423 289.867 L 476.423 243.621 L 430.059 243.621 L 430.059 289.867 Z M 477.279 289.867 L 522.721 289.867 L 522.721 243.621 L 477.279 243.621 L 477.279 289.867 Z M 523.578 289.867 L 569.942 289.867 L 569.942 243.621 L 523.578 243.621 L 523.578 289.867 Z M 570.799 289.867 L 616.237 289.867 L 616.237 243.621 L 570.799 243.621 L 570.799 289.867 Z M 617.094 289.867 L 662.537 289.867 L 662.537 243.621 L 617.094 243.621 L 617.094 289.867 Z M 663.393 289.867 L 709.757 289.867 L 709.757 243.621 L 663.393 243.621 L 663.393 289.867 Z M 710.613 289.867 L 756.053 289.867 L 756.053 243.621 L 710.613 243.621 L 710.613 289.867 Z M 756.909 289.867 L 803.276 289.867 L 803.276 243.621 L 756.909 243.621 L 756.909 289.867 Z M 804.132 289.867 L 849.572 289.867 L 849.572 243.621 L 804.132 243.621 L 804.132 289.867 Z M 850.428 289.867 L 895.867 289.867 L 895.867 243.621 L 850.428 243.621 L 850.428 289.867 Z M 896.724 289.867 L 943.091 289.867 L 943.091 243.621 L 896.724 243.621 L 896.724 289.867 Z M 56.91 197.031 L 56.91 242.766 L 103.277 242.766 L 103.277 197.031 L 56.91 197.031 Z M 104.134 197.031 L 104.134 242.766 L 149.572 242.766 L 149.572 197.031 L 104.134 197.031 Z M 150.429 197.031 L 150.429 242.766 L 195.869 242.766 L 195.869 197.031 L 150.429 197.031 Z M 196.725 197.031 L 196.725 242.766 L 243.092 242.766 L 243.092 197.031 L 196.725 197.031 Z M 243.948 197.031 L 243.948 242.766 L 289.388 242.766 L 289.388 197.031 L 243.948 197.031 Z M 290.244 197.031 L 290.244 242.766 L 336.607 242.766 L 336.607 197.031 L 290.244 197.031 Z M 337.464 197.031 L 337.464 242.766 L 382.907 242.766 L 382.907 197.031 L 337.464 197.031 Z M 383.763 197.031 L 383.763 242.766 L 429.202 242.766 L 429.202 197.031 L 383.763 197.031 Z M 430.059 197.031 L 430.059 242.766 L 476.423 242.766 L 476.423 197.031 L 430.059 197.031 Z M 477.279 197.031 L 477.279 242.766 L 522.721 242.766 L 522.721 197.031 L 477.279 197.031 Z M 523.578 197.031 L 523.578 242.766 L 569.942 242.766 L 569.942 197.031 L 523.578 197.031 Z M 570.799 197.031 L 570.799 242.766 L 616.237 242.766 L 616.237 197.031 L 570.799 197.031 Z M 617.094 197.031 L 617.094 242.766 L 662.537 242.766 L 662.537 197.031 L 617.094 197.031 Z M 663.393 197.031 L 663.393 242.766 L 709.757 242.766 L 709.757 197.031 L 663.393 197.031 Z M 710.613 197.031 L 710.613 242.766 L 756.053 242.766 L 756.053 197.031 L 710.613 197.031 Z M 756.909 197.031 L 756.909 242.766 L 803.276 242.766 L 803.276 197.031 L 756.909 197.031 Z M 804.132 197.031 L 804.132 242.766 L 849.572 242.766 L 849.572 197.031 L 804.132 197.031 Z M 850.428 197.031 L 850.428 242.766 L 895.867 242.766 L 895.867 197.031 L 850.428 197.031 Z M 896.724 197.031 L 896.724 242.766 L 943.091 242.766 L 943.091 197.031 L 896.724 197.031 Z M 56.91 196.176 L 103.277 196.176 L 103.277 150.445 L 56.91 150.445 L 56.91 196.176 Z M 104.134 196.176 L 149.572 196.176 L 149.572 150.445 L 104.134 150.445 L 104.134 196.176 Z M 150.429 196.176 L 195.869 196.176 L 195.869 150.445 L 150.429 150.445 L 150.429 196.176 Z M 196.725 196.176 L 243.092 196.176 L 243.092 150.445 L 196.725 150.445 L 196.725 196.176 Z M 243.948 196.176 L 289.388 196.176 L 289.388 150.445 L 243.948 150.445 L 243.948 196.176 Z M 290.244 196.176 L 336.607 196.176 L 336.607 150.445 L 290.244 150.445 L 290.244 196.176 Z M 337.464 196.176 L 382.907 196.176 L 382.907 150.445 L 337.464 150.445 L 337.464 196.176 Z M 383.763 196.176 L 429.202 196.176 L 429.202 150.445 L 383.763 150.445 L 383.763 196.176 Z M 430.059 196.176 L 476.423 196.176 L 476.423 150.445 L 430.059 150.445 L 430.059 196.176 Z M 477.279 196.176 L 522.721 196.176 L 522.721 150.445 L 477.279 150.445 L 477.279 196.176 Z M 523.578 196.176 L 569.942 196.176 L 569.942 150.445 L 523.578 150.445 L 523.578 196.176 Z M 570.799 196.176 L 616.237 196.176 L 616.237 150.445 L 570.799 150.445 L 570.799 196.176 Z M 617.094 196.176 L 662.537 196.176 L 662.537 150.445 L 617.094 150.445 L 617.094 196.176 Z M 663.393 196.176 L 709.757 196.176 L 709.757 150.445 L 663.393 150.445 L 663.393 196.176 Z M 710.613 196.176 L 756.053 196.176 L 756.053 150.445 L 710.613 150.445 L 710.613 196.176 Z M 756.909 196.176 L 803.276 196.176 L 803.276 150.445 L 756.909 150.445 L 756.909 196.176 Z M 804.132 196.176 L 849.572 196.176 L 849.572 150.445 L 804.132 150.445 L 804.132 196.176 Z M 850.428 196.176 L 895.867 196.176 L 895.867 150.445 L 850.428 150.445 L 850.428 196.176 Z M 896.724 196.176 L 943.091 196.176 L 943.091 150.445 L 896.724 150.445 L 896.724 196.176 Z M 56.91 149.59 L 103.277 149.59 L 103.277 103.855 L 56.91 103.855 L 56.91 149.59 Z M 104.134 149.59 L 149.572 149.59 L 149.572 103.855 L 104.134 103.855 L 104.134 149.59 Z M 150.429 149.59 L 195.869 149.59 L 195.869 103.855 L 150.429 103.855 L 150.429 149.59 Z M 196.725 149.59 L 243.092 149.59 L 243.092 103.855 L 196.725 103.855 L 196.725 149.59 Z M 243.948 149.59 L 289.388 149.59 L 289.388 103.855 L 243.948 103.855 L 243.948 149.59 Z M 290.244 149.59 L 336.607 149.59 L 336.607 103.855 L 290.244 103.855 L 290.244 149.59 Z M 337.464 149.59 L 382.907 149.59 L 382.907 103.855 L 337.464 103.855 L 337.464 149.59 Z M 383.763 149.59 L 429.202 149.59 L 429.202 103.855 L 383.763 103.855 L 383.763 149.59 Z M 430.059 149.59 L 476.423 149.59 L 476.423 103.855 L 430.059 103.855 L 430.059 149.59 Z M 477.279 149.59 L 522.721 149.59 L 522.721 103.855 L 477.279 103.855 L 477.279 149.59 Z M 523.578 149.59 L 569.942 149.59 L 569.942 103.855 L 523.578 103.855 L 523.578 149.59 Z M 570.799 149.59 L 616.237 149.59 L 616.237 103.855 L 570.799 103.855 L 570.799 149.59 Z M 617.094 149.59 L 662.537 149.59 L 662.537 103.855 L 617.094 103.855 L 617.094 149.59 Z M 663.393 149.59 L 709.757 149.59 L 709.757 103.855 L 663.393 103.855 L 663.393 149.59 Z M 710.613 149.59 L 756.053 149.59 L 756.053 103.855 L 710.613 103.855 L 710.613 149.59 Z M 756.909 149.59 L 803.276 149.59 L 803.276 103.855 L 756.909 103.855 L 756.909 149.59 Z M 804.132 149.59 L 849.572 149.59 L 849.572 103.855 L 804.132 103.855 L 804.132 149.59 Z M 850.428 149.59 L 895.867 149.59 L 895.867 103.855 L 850.428 103.855 L 850.428 149.59 Z M 896.724 149.59 L 943.091 149.59 L 943.091 103.855 L 896.724 103.855 L 896.724 149.59 Z M 56.91 103 L 103.277 103 L 103.277 57.268 L 56.91 57.268 L 56.91 103 Z M 104.134 103 L 149.572 103 L 149.572 57.268 L 104.134 57.268 L 104.134 103 Z M 150.429 103 L 195.869 103 L 195.869 57.268 L 150.429 57.268 L 150.429 103 Z M 196.725 103 L 243.092 103 L 243.092 57.268 L 196.725 57.268 L 196.725 103 Z M 243.948 103 L 289.388 103 L 289.388 57.268 L 243.948 57.268 L 243.948 103 Z M 290.244 103 L 336.607 103 L 336.607 57.268 L 290.244 57.268 L 290.244 103 Z M 337.464 103 L 382.907 103 L 382.907 57.268 L 337.464 57.268 L 337.464 103 Z M 383.763 103 L 429.202 103 L 429.202 57.268 L 383.763 57.268 L 383.763 103 Z M 430.059 103 L 476.423 103 L 476.423 57.268 L 430.059 57.268 L 430.059 103 Z M 477.279 103 L 522.721 103 L 522.721 57.268 L 477.279 57.268 L 477.279 103 Z M 523.578 103 L 569.942 103 L 569.942 57.268 L 523.578 57.268 L 523.578 103 Z M 570.799 103 L 616.237 103 L 616.237 57.268 L 570.799 57.268 L 570.799 103 Z M 617.094 103 L 662.537 103 L 662.537 57.268 L 617.094 57.268 L 617.094 103 Z M 663.393 103 L 709.757 103 L 709.757 57.268 L 663.393 57.268 L 663.393 103 Z M 710.613 103 L 756.053 103 L 756.053 57.268 L 710.613 57.268 L 710.613 103 Z M 756.909 103 L 803.276 103 L 803.276 57.268 L 756.909 57.268 L 756.909 103 Z M 804.132 103 L 849.572 103 L 849.572 57.268 L 804.132 57.268 L 804.132 103 Z M 850.428 103 L 895.867 103 L 895.867 57.268 L 850.428 57.268 L 850.428 103 Z M 896.724 103 L 943.091 103 L 943.091 57.268 L 896.724 57.268 L 896.724 103 Z M 56.91 56.413 L 103.277 56.413 L 103.277 10.68 L 56.91 10.68 L 56.91 56.413 Z M 104.134 56.413 L 149.572 56.413 L 149.572 10.68 L 104.134 10.68 L 104.134 56.413 Z M 150.429 56.413 L 195.869 56.413 L 195.869 10.68 L 150.429 10.68 L 150.429 56.413 Z M 196.725 56.413 L 243.092 56.413 L 243.092 10.68 L 196.725 10.68 L 196.725 56.413 Z M 243.948 56.413 L 289.388 56.413 L 289.388 10.68 L 243.948 10.68 L 243.948 56.413 Z M 290.244 56.413 L 336.607 56.413 L 336.607 10.68 L 290.244 10.68 L 290.244 56.413 Z M 337.464 56.413 L 382.907 56.413 L 382.907 10.68 L 337.464 10.68 L 337.464 56.413 Z M 383.763 56.413 L 429.202 56.413 L 429.202 10.68 L 383.763 10.68 L 383.763 56.413 Z M 430.059 56.413 L 476.423 56.413 L 476.423 10.68 L 430.059 10.68 L 430.059 56.413 Z M 477.279 56.413 L 522.721 56.413 L 522.721 10.68 L 477.279 10.68 L 477.279 56.413 Z M 523.578 56.413 L 569.942 56.413 L 569.942 10.68 L 523.578 10.68 L 523.578 56.413 Z M 570.799 56.413 L 616.237 56.413 L 616.237 10.68 L 570.799 10.68 L 570.799 56.413 Z M 617.094 56.413 L 662.537 56.413 L 662.537 10.68 L 617.094 10.68 L 617.094 56.413 Z M 663.393 56.413 L 709.757 56.413 L 709.757 10.68 L 663.393 10.68 L 663.393 56.413 Z M 710.613 56.413 L 756.053 56.413 L 756.053 10.68 L 710.613 10.68 L 710.613 56.413 Z M 756.909 56.413 L 803.276 56.413 L 803.276 10.68 L 756.909 10.68 L 756.909 56.413 Z M 804.132 56.413 L 849.572 56.413 L 849.572 10.68 L 804.132 10.68 L 804.132 56.413 Z M 850.428 56.413 L 895.867 56.413 L 895.867 10.68 L 850.428 10.68 L 850.428 56.413 Z M 896.724 56.413 L 943.091 56.413 L 943.091 10.68 L 896.724 10.68 L 896.724 56.413 Z" fill="currentColor" fill-rule="evenodd"></path>
</svg>