<svg xmlns="http://www.w3.org/2000/svg" width="1197.000" height="1477" viewBox="0 0 1197.000 1477" fill="none">
  <path d="M 68.121 12.975 L 123.623 12.975 L 123.623 0 L 124.648 0 L 124.648 12.975 L 179.038 12.975 L 179.038 0 L 180.063 0 L 180.063 12.975 L 234.455 12.975 L 234.455 0 L 235.48 0 L 235.48 12.975 L 290.981 12.975 L 290.981 0 L 292.006 0 L 292.006 12.975 L 346.397 12.975 L 346.397 0 L 347.422 0 L 347.422 12.975 L 402.919 12.975 L 402.919 0 L 403.944 0 L 403.944 12.975 L 458.34 12.975 L 458.34 0 L 459.365 0 L 459.365 12.975 L 513.755 12.975 L 513.755 0 L 514.78 0 L 514.78 12.975 L 570.278 12.975 L 570.278 0 L 571.303 0 L 571.303 12.975 L 625.698 12.975 L 625.698 0 L 626.723 0 L 626.723 12.975 L 682.22 12.975 L 682.22 0 L 683.246 0 L 683.246 12.975 L 737.636 12.975 L 737.636 0 L 738.661 0 L 738.661 12.975 L 793.057 12.975 L 793.057 0 L 794.082 0 L 794.082 12.975 L 849.578 12.975 L 849.578 0 L 850.604 0 L 850.604 12.975 L 904.995 12.975 L 904.995 0 L 906.02 0 L 906.02 12.975 L 961.521 12.975 L 961.521 0 L 962.546 0 L 962.546 12.975 L 1016.937 12.975 L 1016.937 0 L 1017.963 0 L 1017.963 12.975 L 1072.353 12.975 L 1072.353 0 L 1073.378 0 L 1073.378 12.975 L 1128.88 12.975 L 1128.88 0 L 1129.905 0 L 1129.905 12.975 L 1197 12.975 L 1197 14 L 1129.905 14 L 1129.905 68.783 L 1197 68.783 L 1197 69.808 L 1129.905 69.808 L 1129.905 124.589 L 1197 124.589 L 1197 125.613 L 1129.905 125.613 L 1129.905 180.398 L 1197 180.398 L 1197 181.422 L 1129.905 181.422 L 1129.905 236.203 L 1197 236.203 L 1197 237.227 L 1129.905 237.227 L 1129.905 292.013 L 1197 292.013 L 1197 293.037 L 1129.905 293.037 L 1129.905 348.433 L 1197 348.433 L 1197 349.458 L 1129.905 349.458 L 1129.905 404.239 L 1197 404.239 L 1197 405.264 L 1129.905 405.264 L 1129.905 460.047 L 1197 460.047 L 1197 461.071 L 1129.905 461.071 L 1129.905 515.855 L 1197 515.855 L 1197 516.879 L 1129.905 516.879 L 1129.905 571.664 L 1197 571.664 L 1197 572.688 L 1129.905 572.688 L 1129.905 627.469 L 1197 627.469 L 1197 628.493 L 1129.905 628.493 L 1129.905 683.276 L 1197 683.276 L 1197 684.301 L 1129.905 684.301 L 1129.905 739.083 L 1197 739.083 L 1197 740.107 L 1129.905 740.107 L 1129.905 794.892 L 1197 794.892 L 1197 795.916 L 1129.905 795.916 L 1129.905 850.697 L 1197 850.697 L 1197 851.721 L 1129.905 851.721 L 1129.905 906.507 L 1197 906.507 L 1197 907.531 L 1129.905 907.531 L 1129.905 962.312 L 1197 962.312 L 1197 963.337 L 1129.905 963.337 L 1129.905 1018.121 L 1197 1018.121 L 1197 1019.146 L 1129.905 1019.146 L 1129.905 1073.926 L 1197 1073.926 L 1197 1074.95 L 1129.905 1074.95 L 1129.905 1129.734 L 1197 1129.734 L 1197 1130.758 L 1129.905 1130.758 L 1129.905 1185.541 L 1197 1185.541 L 1197 1186.565 L 1129.905 1186.565 L 1129.905 1241.349 L 1197 1241.349 L 1197 1242.374 L 1129.905 1242.374 L 1129.905 1297.156 L 1197 1297.156 L 1197 1298.181 L 1129.905 1298.181 L 1129.905 1352.964 L 1197 1352.964 L 1197 1353.988 L 1129.905 1353.988 L 1129.905 1408.771 L 1197 1408.771 L 1197 1409.795 L 1129.905 1409.795 L 1129.905 1477 L 1128.88 1477 L 1128.88 1409.795 L 1073.378 1409.795 L 1073.378 1477 L 1072.353 1477 L 1072.353 1409.795 L 1017.963 1409.795 L 1017.963 1477 L 1016.937 1477 L 1016.937 1409.795 L 962.546 1409.795 L 962.546 1477 L 961.521 1477 L 961.521 1409.795 L 906.02 1409.795 L 906.02 1477 L 904.995 1477 L 904.995 1409.795 L 850.604 1409.795 L 850.604 1477 L 849.578 1477 L 849.578 1409.795 L 794.082 1409.795 L 794.082 1477 L 793.057 1477 L 793.057 1409.795 L 738.661 1409.795 L 738.661 1477 L 737.636 1477 L 737.636 1409.795 L 683.246 1409.795 L 683.246 1477 L 682.22 1477 L 682.22 1409.795 L 626.723 1409.795 L 626.723 1477 L 625.698 1477 L 625.698 1409.795 L 571.303 1409.795 L 571.303 1477 L 570.278 1477 L 570.278 1409.795 L 514.78 1409.795 L 514.78 1477 L 513.755 1477 L 513.755 1409.795 L 459.365 1409.795 L 459.365 1477 L 458.34 1477 L 458.34 1409.795 L 403.944 1409.795 L 403.944 1477 L 402.919 1477 L 402.919 1409.795 L 347.422 1409.795 L 347.422 1477 L 346.397 1477 L 346.397 1409.795 L 292.006 1409.795 L 292.006 1477 L 290.981 1477 L 290.981 1409.795 L 235.48 1409.795 L 235.48 1477 L 234.455 1477 L 234.455 1409.795 L 180.063 1409.795 L 180.063 1477 L 179.038 1477 L 179.038 1409.795 L 124.648 1409.795 L 124.648 1477 L 123.623 1477 L 123.623 1409.795 L 68.121 1409.795 L 68.121 1477 L 67.096 1477 L 67.096 1409.795 L 0 1409.795 L 0 1408.771 L 67.096 1408.771 L 67.096 1353.988 L 0 1353.988 L 0 1352.964 L 67.096 1352.964 L 67.096 1298.181 L 0 1298.181 L 0 1297.156 L 67.096 1297.156 L 67.096 1242.374 L 0 1242.374 L 0 1241.349 L 67.096 1241.349 L 67.096 1186.565 L 0 1186.565 L 0 1185.541 L 67.096 1185.541 L 67.096 1130.758 L 0 1130.758 L 0 1129.734 L 67.096 1129.734 L 67.096 1074.95 L 0 1074.95 L 0 1073.926 L 67.096 1073.926 L 67.096 1019.146 L 0 1019.146 L 0 1018.121 L 67.096 1018.121 L 67.096 963.337 L 0 963.337 L 0 962.312 L 67.096 962.312 L 67.096 907.531 L 0 907.531 L 0 906.507 L 67.096 906.507 L 67.096 851.721 L 0 851.721 L 0 850.697 L 67.096 850.697 L 67.096 795.916 L 0 795.916 L 0 794.892 L 67.096 794.892 L 67.096 740.107 L 0 740.107 L 0 739.083 L 67.096 739.083 L 67.096 684.301 L 0 684.301 L 0 683.276 L 67.096 683.276 L 67.096 628.493 L 0 628.493 L 0 627.469 L 67.096 627.469 L 67.096 572.688 L 0 572.688 L 0 571.664 L 67.096 571.664 L 67.096 516.879 L 0 516.879 L 0 515.855 L 67.096 515.855 L 67.096 461.071 L 0 461.071 L 0 460.047 L 67.096 460.047 L 67.096 405.264 L 0 405.264 L 0 404.239 L 67.096 404.239 L 67.096 349.458 L 0 349.458 L 0 348.433 L 67.096 348.433 L 67.096 293.037 L 0 293.037 L 0 292.013 L 67.096 292.013 L 67.096 237.227 L 0 237.227 L 0 236.203 L 67.096 236.203 L 67.096 181.422 L 0 181.422 L 0 180.398 L 67.096 180.398 L 67.096 125.613 L 0 125.613 L 0 124.589 L 67.096 124.589 L 67.096 69.808 L 0 69.808 L 0 68.783 L 67.096 68.783 L 67.096 14 L 0 14 L 0 12.975 L 67.096 12.975 L 67.096 0 L 68.121 0 L 68.121 12.975 Z M 68.121 1408.771 L 123.623 1408.771 L 123.623 1353.988 L 68.121 1353.988 L 68.121 1408.771 Z M 124.648 1408.771 L 179.038 1408.771 L 179.038 1353.988 L 124.648 1353.988 L 124.648 1408.771 Z M 180.063 1408.771 L 234.455 1408.771 L 234.455 1353.988 L 180.063 1353.988 L 180.063 1408.771 Z M 235.48 1408.771 L 290.981 1408.771 L 290.981 1353.988 L 235.48 1353.988 L 235.48 1408.771 Z M 292.006 1408.771 L 346.397 1408.771 L 346.397 1353.988 L 292.006 1353.988 L 292.006 1408.771 Z M 347.422 1408.771 L 402.919 1408.771 L 402.919 1353.988 L 347.422 1353.988 L 347.422 1408.771 Z M 403.944 1408.771 L 458.34 1408.771 L 458.34 1353.988 L 403.944 1353.988 L 403.944 1408.771 Z M 459.365 1408.771 L 513.755 1408.771 L 513.755 1353.988 L 459.365 1353.988 L 459.365 1408.771 Z M 514.78 1408.771 L 570.278 1408.771 L 570.278 1353.988 L 514.78 1353.988 L 514.78 1408.771 Z M 571.303 1408.771 L 625.698 1408.771 L 625.698 1353.988 L 571.303 1353.988 L 571.303 1408.771 Z M 626.723 1408.771 L 682.22 1408.771 L 682.22 1353.988 L 626.723 1353.988 L 626.723 1408.771 Z M 683.246 1408.771 L 737.636 1408.771 L 737.636 1353.988 L 683.246 1353.988 L 683.246 1408.771 Z M 738.661 1408.771 L 793.057 1408.771 L 793.057 1353.988 L 738.661 1353.988 L 738.661 1408.771 Z M 794.082 1408.771 L 849.578 1408.771 L 849.578 1353.988 L 794.082 1353.988 L 794.082 1408.771 Z M 850.604 1408.771 L 904.995 1408.771 L 904.995 1353.988 L 850.604 1353.988 L 850.604 1408.771 Z M 906.02 1408.771 L 961.521 1408.771 L 961.521 1353.988 L 906.02 1353.988 L 906.02 1408.771 Z M 962.546 1408.771 L 1016.937 1408.771 L 1016.937 1353.988 L 962.546 1353.988 L 962.546 1408.771 Z M 1017.963 1408.771 L 1072.353 1408.771 L 1072.353 1353.988 L 1017.963 1353.988 L 1017.963 1408.771 Z M 1073.378 1408.771 L 1128.88 1408.771 L 1128.88 1353.988 L 1073.378 1353.988 L 1073.378 1408.771 Z M 68.121 1352.964 L 123.623 1352.964 L 123.623 1298.181 L 68.121 1298.181 L 68.121 1352.964 Z M 124.648 1352.964 L 179.038 1352.964 L 179.038 1298.181 L 124.648 1298.181 L 124.648 1352.964 Z M 180.063 1352.964 L 234.455 1352.964 L 234.455 1298.181 L 180.063 1298.181 L 180.063 1352.964 Z M 235.48 1352.964 L 290.981 1352.964 L 290.981 1298.181 L 235.48 1298.181 L 235.48 1352.964 Z M 292.006 1352.964 L 346.397 1352.964 L 346.397 1298.181 L 292.006 1298.181 L 292.006 1352.964 Z M 347.422 1352.964 L 402.919 1352.964 L 402.919 1298.181 L 347.422 1298.181 L 347.422 1352.964 Z M 403.944 1352.964 L 458.34 1352.964 L 458.34 1298.181 L 403.944 1298.181 L 403.944 1352.964 Z M 459.365 1352.964 L 513.755 1352.964 L 513.755 1298.181 L 459.365 1298.181 L 459.365 1352.964 Z M 514.78 1352.964 L 570.278 1352.964 L 570.278 1298.181 L 514.78 1298.181 L 514.78 1352.964 Z M 571.303 1352.964 L 625.698 1352.964 L 625.698 1298.181 L 571.303 1298.181 L 571.303 1352.964 Z M 626.723 1352.964 L 682.22 1352.964 L 682.22 1298.181 L 626.723 1298.181 L 626.723 1352.964 Z M 683.246 1352.964 L 737.636 1352.964 L 737.636 1298.181 L 683.246 1298.181 L 683.246 1352.964 Z M 738.661 1352.964 L 793.057 1352.964 L 793.057 1298.181 L 738.661 1298.181 L 738.661 1352.964 Z M 794.082 1352.964 L 849.578 1352.964 L 849.578 1298.181 L 794.082 1298.181 L 794.082 1352.964 Z M 850.604 1352.964 L 904.995 1352.964 L 904.995 1298.181 L 850.604 1298.181 L 850.604 1352.964 Z M 906.02 1352.964 L 961.521 1352.964 L 961.521 1298.181 L 906.02 1298.181 L 906.02 1352.964 Z M 962.546 1352.964 L 1016.937 1352.964 L 1016.937 1298.181 L 962.546 1298.181 L 962.546 1352.964 Z M 1017.963 1352.964 L 1072.353 1352.964 L 1072.353 1298.181 L 1017.963 1298.181 L 1017.963 1352.964 Z M 1073.378 1352.964 L 1128.88 1352.964 L 1128.88 1298.181 L 1073.378 1298.181 L 1073.378 1352.964 Z M 68.121 1297.156 L 123.623 1297.156 L 123.623 1242.374 L 68.121 1242.374 L 68.121 1297.156 Z M 124.648 1297.156 L 179.038 1297.156 L 179.038 1242.374 L 124.648 1242.374 L 124.648 1297.156 Z M 180.063 1297.156 L 234.455 1297.156 L 234.455 1242.374 L 180.063 1242.374 L 180.063 1297.156 Z M 235.48 1297.156 L 290.981 1297.156 L 290.981 1242.374 L 235.48 1242.374 L 235.48 1297.156 Z M 292.006 1297.156 L 346.397 1297.156 L 346.397 1242.374 L 292.006 1242.374 L 292.006 1297.156 Z M 347.422 1297.156 L 402.919 1297.156 L 402.919 1242.374 L 347.422 1242.374 L 347.422 1297.156 Z M 403.944 1297.156 L 458.34 1297.156 L 458.34 1242.374 L 403.944 1242.374 L 403.944 1297.156 Z M 459.365 1297.156 L 513.755 1297.156 L 513.755 1242.374 L 459.365 1242.374 L 459.365 1297.156 Z M 514.78 1297.156 L 570.278 1297.156 L 570.278 1242.374 L 514.78 1242.374 L 514.78 1297.156 Z M 571.303 1297.156 L 625.698 1297.156 L 625.698 1242.374 L 571.303 1242.374 L 571.303 1297.156 Z M 626.723 1297.156 L 682.22 1297.156 L 682.22 1242.374 L 626.723 1242.374 L 626.723 1297.156 Z M 683.246 1297.156 L 737.636 1297.156 L 737.636 1242.374 L 683.246 1242.374 L 683.246 1297.156 Z M 738.661 1297.156 L 793.057 1297.156 L 793.057 1242.374 L 738.661 1242.374 L 738.661 1297.156 Z M 794.082 1297.156 L 849.578 1297.156 L 849.578 1242.374 L 794.082 1242.374 L 794.082 1297.156 Z M 850.604 1297.156 L 904.995 1297.156 L 904.995 1242.374 L 850.604 1242.374 L 850.604 1297.156 Z M 906.02 1297.156 L 961.521 1297.156 L 961.521 1242.374 L 906.02 1242.374 L 906.02 1297.156 Z M 962.546 1297.156 L 1016.937 1297.156 L 1016.937 1242.374 L 962.546 1242.374 L 962.546 1297.156 Z M 1017.963 1297.156 L 1072.353 1297.156 L 1072.353 1242.374 L 1017.963 1242.374 L 1017.963 1297.156 Z M 1073.378 1297.156 L 1128.88 1297.156 L 1128.88 1242.374 L 1073.378 1242.374 L 1073.378 1297.156 Z M 68.121 1241.349 L 123.623 1241.349 L 123.623 1186.565 L 68.121 1186.565 L 68.121 1241.349 Z M 124.648 1241.349 L 179.038 1241.349 L 179.038 1186.565 L 124.648 1186.565 L 124.648 1241.349 Z M 180.063 1241.349 L 234.455 1241.349 L 234.455 1186.565 L 180.063 1186.565 L 180.063 1241.349 Z M 235.48 1241.349 L 290.981 1241.349 L 290.981 1186.565 L 235.48 1186.565 L 235.48 1241.349 Z M 292.006 1241.349 L 346.397 1241.349 L 346.397 1186.565 L 292.006 1186.565 L 292.006 1241.349 Z M 347.422 1241.349 L 402.919 1241.349 L 402.919 1186.565 L 347.422 1186.565 L 347.422 1241.349 Z M 403.944 1241.349 L 458.34 1241.349 L 458.34 1186.565 L 403.944 1186.565 L 403.944 1241.349 Z M 459.365 1241.349 L 513.755 1241.349 L 513.755 1186.565 L 459.365 1186.565 L 459.365 1241.349 Z M 514.78 1241.349 L 570.278 1241.349 L 570.278 1186.565 L 514.78 1186.565 L 514.78 1241.349 Z M 571.303 1241.349 L 625.698 1241.349 L 625.698 1186.565 L 571.303 1186.565 L 571.303 1241.349 Z M 626.723 1241.349 L 682.22 1241.349 L 682.22 1186.565 L 626.723 1186.565 L 626.723 1241.349 Z M 683.246 1241.349 L 737.636 1241.349 L 737.636 1186.565 L 683.246 1186.565 L 683.246 1241.349 Z M 738.661 1241.349 L 793.057 1241.349 L 793.057 1186.565 L 738.661 1186.565 L 738.661 1241.349 Z M 794.082 1241.349 L 849.578 1241.349 L 849.578 1186.565 L 794.082 1186.565 L 794.082 1241.349 Z M 850.604 1241.349 L 904.995 1241.349 L 904.995 1186.565 L 850.604 1186.565 L 850.604 1241.349 Z M 906.02 1241.349 L 961.521 1241.349 L 961.521 1186.565 L 906.02 1186.565 L 906.02 1241.349 Z M 962.546 1241.349 L 1016.937 1241.349 L 1016.937 1186.565 L 962.546 1186.565 L 962.546 1241.349 Z M 1017.963 1241.349 L 1072.353 1241.349 L 1072.353 1186.565 L 1017.963 1186.565 L 1017.963 1241.349 Z M 1073.378 1241.349 L 1128.88 1241.349 L 1128.88 1186.565 L 1073.378 1186.565 L 1073.378 1241.349 Z M 68.121 1185.541 L 123.623 1185.541 L 123.623 1130.758 L 68.121 1130.758 L 68.121 1185.541 Z M 124.648 1185.541 L 179.038 1185.541 L 179.038 1130.758 L 124.648 1130.758 L 124.648 1185.541 Z M 180.063 1185.541 L 234.455 1185.541 L 234.455 1130.758 L 180.063 1130.758 L 180.063 1185.541 Z M 235.48 1185.541 L 290.981 1185.541 L 290.981 1130.758 L 235.48 1130.758 L 235.48 1185.541 Z M 292.006 1185.541 L 346.397 1185.541 L 346.397 1130.758 L 292.006 1130.758 L 292.006 1185.541 Z M 347.422 1185.541 L 402.919 1185.541 L 402.919 1130.758 L 347.422 1130.758 L 347.422 1185.541 Z M 403.944 1185.541 L 458.34 1185.541 L 458.34 1130.758 L 403.944 1130.758 L 403.944 1185.541 Z M 459.365 1185.541 L 513.755 1185.541 L 513.755 1130.758 L 459.365 1130.758 L 459.365 1185.541 Z M 514.78 1185.541 L 570.278 1185.541 L 570.278 1130.758 L 514.78 1130.758 L 514.78 1185.541 Z M 571.303 1185.541 L 625.698 1185.541 L 625.698 1130.758 L 571.303 1130.758 L 571.303 1185.541 Z M 626.723 1185.541 L 682.22 1185.541 L 682.22 1130.758 L 626.723 1130.758 L 626.723 1185.541 Z M 683.246 1185.541 L 737.636 1185.541 L 737.636 1130.758 L 683.246 1130.758 L 683.246 1185.541 Z M 738.661 1185.541 L 793.057 1185.541 L 793.057 1130.758 L 738.661 1130.758 L 738.661 1185.541 Z M 794.082 1185.541 L 849.578 1185.541 L 849.578 1130.758 L 794.082 1130.758 L 794.082 1185.541 Z M 850.604 1185.541 L 904.995 1185.541 L 904.995 1130.758 L 850.604 1130.758 L 850.604 1185.541 Z M 906.02 1185.541 L 961.521 1185.541 L 961.521 1130.758 L 906.02 1130.758 L 906.02 1185.541 Z M 962.546 1185.541 L 1016.937 1185.541 L 1016.937 1130.758 L 962.546 1130.758 L 962.546 1185.541 Z M 1017.963 1185.541 L 1072.353 1185.541 L 1072.353 1130.758 L 1017.963 1130.758 L 1017.963 1185.541 Z M 1073.378 1185.541 L 1128.88 1185.541 L 1128.88 1130.758 L 1073.378 1130.758 L 1073.378 1185.541 Z M 68.121 1129.734 L 123.623 1129.734 L 123.623 1074.95 L 68.121 1074.95 L 68.121 1129.734 Z M 124.648 1129.734 L 179.038 1129.734 L 179.038 1074.95 L 124.648 1074.95 L 124.648 1129.734 Z M 180.063 1129.734 L 234.455 1129.734 L 234.455 1074.95 L 180.063 1074.95 L 180.063 1129.734 Z M 235.48 1129.734 L 290.981 1129.734 L 290.981 1074.95 L 235.48 1074.95 L 235.48 1129.734 Z M 292.006 1129.734 L 346.397 1129.734 L 346.397 1074.95 L 292.006 1074.95 L 292.006 1129.734 Z M 347.422 1129.734 L 402.919 1129.734 L 402.919 1074.95 L 347.422 1074.95 L 347.422 1129.734 Z M 403.944 1129.734 L 458.34 1129.734 L 458.34 1074.95 L 403.944 1074.95 L 403.944 1129.734 Z M 459.365 1129.734 L 513.755 1129.734 L 513.755 1074.95 L 459.365 1074.95 L 459.365 1129.734 Z M 514.78 1129.734 L 570.278 1129.734 L 570.278 1074.95 L 514.78 1074.95 L 514.78 1129.734 Z M 571.303 1129.734 L 625.698 1129.734 L 625.698 1074.95 L 571.303 1074.95 L 571.303 1129.734 Z M 626.723 1129.734 L 682.22 1129.734 L 682.22 1074.95 L 626.723 1074.95 L 626.723 1129.734 Z M 683.246 1129.734 L 737.636 1129.734 L 737.636 1074.95 L 683.246 1074.95 L 683.246 1129.734 Z M 738.661 1129.734 L 793.057 1129.734 L 793.057 1074.95 L 738.661 1074.95 L 738.661 1129.734 Z M 794.082 1129.734 L 849.578 1129.734 L 849.578 1074.95 L 794.082 1074.95 L 794.082 1129.734 Z M 850.604 1129.734 L 904.995 1129.734 L 904.995 1074.95 L 850.604 1074.95 L 850.604 1129.734 Z M 906.02 1129.734 L 961.521 1129.734 L 961.521 1074.95 L 906.02 1074.95 L 906.02 1129.734 Z M 962.546 1129.734 L 1016.937 1129.734 L 1016.937 1074.95 L 962.546 1074.95 L 962.546 1129.734 Z M 1017.963 1129.734 L 1072.353 1129.734 L 1072.353 1074.95 L 1017.963 1074.95 L 1017.963 1129.734 Z M 1073.378 1129.734 L 1128.88 1129.734 L 1128.88 1074.95 L 1073.378 1074.95 L 1073.378 1129.734 Z M 68.121 1073.926 L 123.623 1073.926 L 123.623 1019.146 L 68.121 1019.146 L 68.121 1073.926 Z M 124.648 1073.926 L 179.038 1073.926 L 179.038 1019.146 L 124.648 1019.146 L 124.648 1073.926 Z M 180.063 1073.926 L 234.455 1073.926 L 234.455 1019.146 L 180.063 1019.146 L 180.063 1073.926 Z M 235.48 1073.926 L 290.981 1073.926 L 290.981 1019.146 L 235.48 1019.146 L 235.48 1073.926 Z M 292.006 1073.926 L 346.397 1073.926 L 346.397 1019.146 L 292.006 1019.146 L 292.006 1073.926 Z M 347.422 1073.926 L 402.919 1073.926 L 402.919 1019.146 L 347.422 1019.146 L 347.422 1073.926 Z M 403.944 1073.926 L 458.34 1073.926 L 458.34 1019.146 L 403.944 1019.146 L 403.944 1073.926 Z M 459.365 1073.926 L 513.755 1073.926 L 513.755 1019.146 L 459.365 1019.146 L 459.365 1073.926 Z M 514.78 1073.926 L 570.278 1073.926 L 570.278 1019.146 L 514.78 1019.146 L 514.78 1073.926 Z M 571.303 1073.926 L 625.698 1073.926 L 625.698 1019.146 L 571.303 1019.146 L 571.303 1073.926 Z M 626.723 1073.926 L 682.22 1073.926 L 682.22 1019.146 L 626.723 1019.146 L 626.723 1073.926 Z M 683.246 1073.926 L 737.636 1073.926 L 737.636 1019.146 L 683.246 1019.146 L 683.246 1073.926 Z M 738.661 1073.926 L 793.057 1073.926 L 793.057 1019.146 L 738.661 1019.146 L 738.661 1073.926 Z M 794.082 1073.926 L 849.578 1073.926 L 849.578 1019.146 L 794.082 1019.146 L 794.082 1073.926 Z M 850.604 1073.926 L 904.995 1073.926 L 904.995 1019.146 L 850.604 1019.146 L 850.604 1073.926 Z M 906.02 1073.926 L 961.521 1073.926 L 961.521 1019.146 L 906.02 1019.146 L 906.02 1073.926 Z M 962.546 1073.926 L 1016.937 1073.926 L 1016.937 1019.146 L 962.546 1019.146 L 962.546 1073.926 Z M 1017.963 1073.926 L 1072.353 1073.926 L 1072.353 1019.146 L 1017.963 1019.146 L 1017.963 1073.926 Z M 1073.378 1073.926 L 1128.88 1073.926 L 1128.88 1019.146 L 1073.378 1019.146 L 1073.378 1073.926 Z M 68.121 1018.121 L 123.623 1018.121 L 123.623 963.337 L 68.121 963.337 L 68.121 1018.121 Z M 124.648 1018.121 L 179.038 1018.121 L 179.038 963.337 L 124.648 963.337 L 124.648 1018.121 Z M 180.063 1018.121 L 234.455 1018.121 L 234.455 963.337 L 180.063 963.337 L 180.063 1018.121 Z M 235.48 1018.121 L 290.981 1018.121 L 290.981 963.337 L 235.48 963.337 L 235.48 1018.121 Z M 292.006 1018.121 L 346.397 1018.121 L 346.397 963.337 L 292.006 963.337 L 292.006 1018.121 Z M 347.422 1018.121 L 402.919 1018.121 L 402.919 963.337 L 347.422 963.337 L 347.422 1018.121 Z M 403.944 1018.121 L 458.34 1018.121 L 458.34 963.337 L 403.944 963.337 L 403.944 1018.121 Z M 459.365 1018.121 L 513.755 1018.121 L 513.755 963.337 L 459.365 963.337 L 459.365 1018.121 Z M 514.78 1018.121 L 570.278 1018.121 L 570.278 963.337 L 514.78 963.337 L 514.78 1018.121 Z M 571.303 1018.121 L 625.698 1018.121 L 625.698 963.337 L 571.303 963.337 L 571.303 1018.121 Z M 626.723 1018.121 L 682.22 1018.121 L 682.22 963.337 L 626.723 963.337 L 626.723 1018.121 Z M 683.246 1018.121 L 737.636 1018.121 L 737.636 963.337 L 683.246 963.337 L 683.246 1018.121 Z M 738.661 1018.121 L 793.057 1018.121 L 793.057 963.337 L 738.661 963.337 L 738.661 1018.121 Z M 794.082 1018.121 L 849.578 1018.121 L 849.578 963.337 L 794.082 963.337 L 794.082 1018.121 Z M 850.604 1018.121 L 904.995 1018.121 L 904.995 963.337 L 850.604 963.337 L 850.604 1018.121 Z M 906.02 1018.121 L 961.521 1018.121 L 961.521 963.337 L 906.02 963.337 L 906.02 1018.121 Z M 962.546 1018.121 L 1016.937 1018.121 L 1016.937 963.337 L 962.546 963.337 L 962.546 1018.121 Z M 1017.963 1018.121 L 1072.353 1018.121 L 1072.353 963.337 L 1017.963 963.337 L 1017.963 1018.121 Z M 1073.378 1018.121 L 1128.88 1018.121 L 1128.88 963.337 L 1073.378 963.337 L 1073.378 1018.121 Z M 68.121 962.312 L 123.623 962.312 L 123.623 907.531 L 68.121 907.531 L 68.121 962.312 Z M 124.648 962.312 L 179.038 962.312 L 179.038 907.531 L 124.648 907.531 L 124.648 962.312 Z M 180.063 962.312 L 234.455 962.312 L 234.455 907.531 L 180.063 907.531 L 180.063 962.312 Z M 235.48 962.312 L 290.981 962.312 L 290.981 907.531 L 235.48 907.531 L 235.48 962.312 Z M 292.006 962.312 L 346.397 962.312 L 346.397 907.531 L 292.006 907.531 L 292.006 962.312 Z M 347.422 962.312 L 402.919 962.312 L 402.919 907.531 L 347.422 907.531 L 347.422 962.312 Z M 403.944 962.312 L 458.34 962.312 L 458.34 907.531 L 403.944 907.531 L 403.944 962.312 Z M 459.365 962.312 L 513.755 962.312 L 513.755 907.531 L 459.365 907.531 L 459.365 962.312 Z M 514.78 962.312 L 570.278 962.312 L 570.278 907.531 L 514.78 907.531 L 514.78 962.312 Z M 571.303 962.312 L 625.698 962.312 L 625.698 907.531 L 571.303 907.531 L 571.303 962.312 Z M 626.723 962.312 L 682.22 962.312 L 682.22 907.531 L 626.723 907.531 L 626.723 962.312 Z M 683.246 962.312 L 737.636 962.312 L 737.636 907.531 L 683.246 907.531 L 683.246 962.312 Z M 738.661 962.312 L 793.057 962.312 L 793.057 907.531 L 738.661 907.531 L 738.661 962.312 Z M 794.082 962.312 L 849.578 962.312 L 849.578 907.531 L 794.082 907.531 L 794.082 962.312 Z M 850.604 962.312 L 904.995 962.312 L 904.995 907.531 L 850.604 907.531 L 850.604 962.312 Z M 906.02 962.312 L 961.521 962.312 L 961.521 907.531 L 906.02 907.531 L 906.02 962.312 Z M 962.546 962.312 L 1016.937 962.312 L 1016.937 907.531 L 962.546 907.531 L 962.546 962.312 Z M 1017.963 962.312 L 1072.353 962.312 L 1072.353 907.531 L 1017.963 907.531 L 1017.963 962.312 Z M 1073.378 962.312 L 1128.88 962.312 L 1128.88 907.531 L 1073.378 907.531 L 1073.378 962.312 Z M 68.121 906.507 L 123.623 906.507 L 123.623 851.721 L 68.121 851.721 L 68.121 906.507 Z M 124.648 906.507 L 179.038 906.507 L 179.038 851.721 L 124.648 851.721 L 124.648 906.507 Z M 180.063 906.507 L 234.455 906.507 L 234.455 851.721 L 180.063 851.721 L 180.063 906.507 Z M 235.48 906.507 L 290.981 906.507 L 290.981 851.721 L 235.48 851.721 L 235.48 906.507 Z M 292.006 906.507 L 346.397 906.507 L 346.397 851.721 L 292.006 851.721 L 292.006 906.507 Z M 347.422 906.507 L 402.919 906.507 L 402.919 851.721 L 347.422 851.721 L 347.422 906.507 Z M 403.944 906.507 L 458.34 906.507 L 458.34 851.721 L 403.944 851.721 L 403.944 906.507 Z M 459.365 906.507 L 513.755 906.507 L 513.755 851.721 L 459.365 851.721 L 459.365 906.507 Z M 514.78 906.507 L 570.278 906.507 L 570.278 851.721 L 514.78 851.721 L 514.78 906.507 Z M 571.303 906.507 L 625.698 906.507 L 625.698 851.721 L 571.303 851.721 L 571.303 906.507 Z M 626.723 906.507 L 682.22 906.507 L 682.22 851.721 L 626.723 851.721 L 626.723 906.507 Z M 683.246 906.507 L 737.636 906.507 L 737.636 851.721 L 683.246 851.721 L 683.246 906.507 Z M 738.661 906.507 L 793.057 906.507 L 793.057 851.721 L 738.661 851.721 L 738.661 906.507 Z M 794.082 906.507 L 849.578 906.507 L 849.578 851.721 L 794.082 851.721 L 794.082 906.507 Z M 850.604 906.507 L 904.995 906.507 L 904.995 851.721 L 850.604 851.721 L 850.604 906.507 Z M 906.02 906.507 L 961.521 906.507 L 961.521 851.721 L 906.02 851.721 L 906.02 906.507 Z M 962.546 906.507 L 1016.937 906.507 L 1016.937 851.721 L 962.546 851.721 L 962.546 906.507 Z M 1017.963 906.507 L 1072.353 906.507 L 1072.353 851.721 L 1017.963 851.721 L 1017.963 906.507 Z M 1073.378 906.507 L 1128.88 906.507 L 1128.88 851.721 L 1073.378 851.721 L 1073.378 906.507 Z M 68.121 850.697 L 123.623 850.697 L 123.623 795.916 L 68.121 795.916 L 68.121 850.697 Z M 124.648 850.697 L 179.038 850.697 L 179.038 795.916 L 124.648 795.916 L 124.648 850.697 Z M 180.063 850.697 L 234.455 850.697 L 234.455 795.916 L 180.063 795.916 L 180.063 850.697 Z M 235.48 850.697 L 290.981 850.697 L 290.981 795.916 L 235.48 795.916 L 235.48 850.697 Z M 292.006 850.697 L 346.397 850.697 L 346.397 795.916 L 292.006 795.916 L 292.006 850.697 Z M 347.422 850.697 L 402.919 850.697 L 402.919 795.916 L 347.422 795.916 L 347.422 850.697 Z M 403.944 850.697 L 458.34 850.697 L 458.34 795.916 L 403.944 795.916 L 403.944 850.697 Z M 459.365 850.697 L 513.755 850.697 L 513.755 795.916 L 459.365 795.916 L 459.365 850.697 Z M 514.78 850.697 L 570.278 850.697 L 570.278 795.916 L 514.78 795.916 L 514.78 850.697 Z M 571.303 850.697 L 625.698 850.697 L 625.698 795.916 L 571.303 795.916 L 571.303 850.697 Z M 626.723 850.697 L 682.22 850.697 L 682.22 795.916 L 626.723 795.916 L 626.723 850.697 Z M 683.246 850.697 L 737.636 850.697 L 737.636 795.916 L 683.246 795.916 L 683.246 850.697 Z M 738.661 850.697 L 793.057 850.697 L 793.057 795.916 L 738.661 795.916 L 738.661 850.697 Z M 794.082 850.697 L 849.578 850.697 L 849.578 795.916 L 794.082 795.916 L 794.082 850.697 Z M 850.604 850.697 L 904.995 850.697 L 904.995 795.916 L 850.604 795.916 L 850.604 850.697 Z M 906.02 850.697 L 961.521 850.697 L 961.521 795.916 L 906.02 795.916 L 906.02 850.697 Z M 962.546 850.697 L 1016.937 850.697 L 1016.937 795.916 L 962.546 795.916 L 962.546 850.697 Z M 1017.963 850.697 L 1072.353 850.697 L 1072.353 795.916 L 1017.963 795.916 L 1017.963 850.697 Z M 1073.378 850.697 L 1128.88 850.697 L 1128.88 795.916 L 1073.378 795.916 L 1073.378 850.697 Z M 68.121 794.892 L 123.623 794.892 L 123.623 740.107 L 68.121 740.107 L 68.121 794.892 Z M 124.648 794.892 L 179.038 794.892 L 179.038 740.107 L 124.648 740.107 L 124.648 794.892 Z M 180.063 794.892 L 234.455 794.892 L 234.455 740.107 L 180.063 740.107 L 180.063 794.892 Z M 235.48 794.892 L 290.981 794.892 L 290.981 740.107 L 235.48 740.107 L 235.48 794.892 Z M 292.006 794.892 L 346.397 794.892 L 346.397 740.107 L 292.006 740.107 L 292.006 794.892 Z M 347.422 794.892 L 402.919 794.892 L 402.919 740.107 L 347.422 740.107 L 347.422 794.892 Z M 403.944 794.892 L 458.34 794.892 L 458.34 740.107 L 403.944 740.107 L 403.944 794.892 Z M 459.365 794.892 L 513.755 794.892 L 513.755 740.107 L 459.365 740.107 L 459.365 794.892 Z M 514.78 794.892 L 570.278 794.892 L 570.278 740.107 L 514.78 740.107 L 514.78 794.892 Z M 571.303 794.892 L 625.698 794.892 L 625.698 740.107 L 571.303 740.107 L 571.303 794.892 Z M 626.723 794.892 L 682.22 794.892 L 682.22 740.107 L 626.723 740.107 L 626.723 794.892 Z M 683.246 794.892 L 737.636 794.892 L 737.636 740.107 L 683.246 740.107 L 683.246 794.892 Z M 738.661 794.892 L 793.057 794.892 L 793.057 740.107 L 738.661 740.107 L 738.661 794.892 Z M 794.082 794.892 L 849.578 794.892 L 849.578 740.107 L 794.082 740.107 L 794.082 794.892 Z M 850.604 794.892 L 904.995 794.892 L 904.995 740.107 L 850.604 740.107 L 850.604 794.892 Z M 906.02 794.892 L 961.521 794.892 L 961.521 740.107 L 906.02 740.107 L 906.02 794.892 Z M 962.546 794.892 L 1016.937 794.892 L 1016.937 740.107 L 962.546 740.107 L 962.546 794.892 Z M 1017.963 794.892 L 1072.353 794.892 L 1072.353 740.107 L 1017.963 740.107 L 1017.963 794.892 Z M 1073.378 794.892 L 1128.88 794.892 L 1128.88 740.107 L 1073.378 740.107 L 1073.378 794.892 Z M 68.121 739.083 L 123.623 739.083 L 123.623 684.301 L 68.121 684.301 L 68.121 739.083 Z M 124.648 739.083 L 179.038 739.083 L 179.038 684.301 L 124.648 684.301 L 124.648 739.083 Z M 180.063 739.083 L 234.455 739.083 L 234.455 684.301 L 180.063 684.301 L 180.063 739.083 Z M 235.48 739.083 L 290.981 739.083 L 290.981 684.301 L 235.48 684.301 L 235.48 739.083 Z M 292.006 739.083 L 346.397 739.083 L 346.397 684.301 L 292.006 684.301 L 292.006 739.083 Z M 347.422 739.083 L 402.919 739.083 L 402.919 684.301 L 347.422 684.301 L 347.422 739.083 Z M 403.944 739.083 L 458.34 739.083 L 458.34 684.301 L 403.944 684.301 L 403.944 739.083 Z M 459.365 739.083 L 513.755 739.083 L 513.755 684.301 L 459.365 684.301 L 459.365 739.083 Z M 514.78 739.083 L 570.278 739.083 L 570.278 684.301 L 514.78 684.301 L 514.78 739.083 Z M 571.303 739.083 L 625.698 739.083 L 625.698 684.301 L 571.303 684.301 L 571.303 739.083 Z M 626.723 739.083 L 682.22 739.083 L 682.22 684.301 L 626.723 684.301 L 626.723 739.083 Z M 683.246 739.083 L 737.636 739.083 L 737.636 684.301 L 683.246 684.301 L 683.246 739.083 Z M 738.661 739.083 L 793.057 739.083 L 793.057 684.301 L 738.661 684.301 L 738.661 739.083 Z M 794.082 739.083 L 849.578 739.083 L 849.578 684.301 L 794.082 684.301 L 794.082 739.083 Z M 850.604 739.083 L 904.995 739.083 L 904.995 684.301 L 850.604 684.301 L 850.604 739.083 Z M 906.02 739.083 L 961.521 739.083 L 961.521 684.301 L 906.02 684.301 L 906.02 739.083 Z M 962.546 739.083 L 1016.937 739.083 L 1016.937 684.301 L 962.546 684.301 L 962.546 739.083 Z M 1017.963 739.083 L 1072.353 739.083 L 1072.353 684.301 L 1017.963 684.301 L 1017.963 739.083 Z M 1073.378 739.083 L 1128.88 739.083 L 1128.88 684.301 L 1073.378 684.301 L 1073.378 739.083 Z M 68.121 683.276 L 123.623 683.276 L 123.623 628.493 L 68.121 628.493 L 68.121 683.276 Z M 124.648 683.276 L 179.038 683.276 L 179.038 628.493 L 124.648 628.493 L 124.648 683.276 Z M 180.063 683.276 L 234.455 683.276 L 234.455 628.493 L 180.063 628.493 L 180.063 683.276 Z M 235.48 683.276 L 290.981 683.276 L 290.981 628.493 L 235.48 628.493 L 235.48 683.276 Z M 292.006 683.276 L 346.397 683.276 L 346.397 628.493 L 292.006 628.493 L 292.006 683.276 Z M 347.422 683.276 L 402.919 683.276 L 402.919 628.493 L 347.422 628.493 L 347.422 683.276 Z M 403.944 683.276 L 458.34 683.276 L 458.34 628.493 L 403.944 628.493 L 403.944 683.276 Z M 459.365 683.276 L 513.755 683.276 L 513.755 628.493 L 459.365 628.493 L 459.365 683.276 Z M 514.78 683.276 L 570.278 683.276 L 570.278 628.493 L 514.78 628.493 L 514.78 683.276 Z M 571.303 683.276 L 625.698 683.276 L 625.698 628.493 L 571.303 628.493 L 571.303 683.276 Z M 626.723 683.276 L 682.22 683.276 L 682.22 628.493 L 626.723 628.493 L 626.723 683.276 Z M 683.246 683.276 L 737.636 683.276 L 737.636 628.493 L 683.246 628.493 L 683.246 683.276 Z M 738.661 683.276 L 793.057 683.276 L 793.057 628.493 L 738.661 628.493 L 738.661 683.276 Z M 794.082 683.276 L 849.578 683.276 L 849.578 628.493 L 794.082 628.493 L 794.082 683.276 Z M 850.604 683.276 L 904.995 683.276 L 904.995 628.493 L 850.604 628.493 L 850.604 683.276 Z M 906.02 683.276 L 961.521 683.276 L 961.521 628.493 L 906.02 628.493 L 906.02 683.276 Z M 962.546 683.276 L 1016.937 683.276 L 1016.937 628.493 L 962.546 628.493 L 962.546 683.276 Z M 1017.963 683.276 L 1072.353 683.276 L 1072.353 628.493 L 1017.963 628.493 L 1017.963 683.276 Z M 1073.378 683.276 L 1128.88 683.276 L 1128.88 628.493 L 1073.378 628.493 L 1073.378 683.276 Z M 68.121 627.469 L 123.623 627.469 L 123.623 572.688 L 68.121 572.688 L 68.121 627.469 Z M 124.648 627.469 L 179.038 627.469 L 179.038 572.688 L 124.648 572.688 L 124.648 627.469 Z M 180.063 627.469 L 234.455 627.469 L 234.455 572.688 L 180.063 572.688 L 180.063 627.469 Z M 235.48 627.469 L 290.981 627.469 L 290.981 572.688 L 235.48 572.688 L 235.48 627.469 Z M 292.006 627.469 L 346.397 627.469 L 346.397 572.688 L 292.006 572.688 L 292.006 627.469 Z M 347.422 627.469 L 402.919 627.469 L 402.919 572.688 L 347.422 572.688 L 347.422 627.469 Z M 403.944 627.469 L 458.34 627.469 L 458.34 572.688 L 403.944 572.688 L 403.944 627.469 Z M 459.365 627.469 L 513.755 627.469 L 513.755 572.688 L 459.365 572.688 L 459.365 627.469 Z M 514.78 627.469 L 570.278 627.469 L 570.278 572.688 L 514.78 572.688 L 514.78 627.469 Z M 571.303 627.469 L 625.698 627.469 L 625.698 572.688 L 571.303 572.688 L 571.303 627.469 Z M 626.723 627.469 L 682.22 627.469 L 682.22 572.688 L 626.723 572.688 L 626.723 627.469 Z M 683.246 627.469 L 737.636 627.469 L 737.636 572.688 L 683.246 572.688 L 683.246 627.469 Z M 738.661 627.469 L 793.057 627.469 L 793.057 572.688 L 738.661 572.688 L 738.661 627.469 Z M 794.082 627.469 L 849.578 627.469 L 849.578 572.688 L 794.082 572.688 L 794.082 627.469 Z M 850.604 627.469 L 904.995 627.469 L 904.995 572.688 L 850.604 572.688 L 850.604 627.469 Z M 906.02 627.469 L 961.521 627.469 L 961.521 572.688 L 906.02 572.688 L 906.02 627.469 Z M 962.546 627.469 L 1016.937 627.469 L 1016.937 572.688 L 962.546 572.688 L 962.546 627.469 Z M 1017.963 627.469 L 1072.353 627.469 L 1072.353 572.688 L 1017.963 572.688 L 1017.963 627.469 Z M 1073.378 627.469 L 1128.88 627.469 L 1128.88 572.688 L 1073.378 572.688 L 1073.378 627.469 Z M 68.121 571.664 L 123.623 571.664 L 123.623 516.879 L 68.121 516.879 L 68.121 571.664 Z M 124.648 571.664 L 179.038 571.664 L 179.038 516.879 L 124.648 516.879 L 124.648 571.664 Z M 180.063 571.664 L 234.455 571.664 L 234.455 516.879 L 180.063 516.879 L 180.063 571.664 Z M 235.48 571.664 L 290.981 571.664 L 290.981 516.879 L 235.48 516.879 L 235.48 571.664 Z M 292.006 571.664 L 346.397 571.664 L 346.397 516.879 L 292.006 516.879 L 292.006 571.664 Z M 347.422 571.664 L 402.919 571.664 L 402.919 516.879 L 347.422 516.879 L 347.422 571.664 Z M 403.944 571.664 L 458.34 571.664 L 458.34 516.879 L 403.944 516.879 L 403.944 571.664 Z M 459.365 571.664 L 513.755 571.664 L 513.755 516.879 L 459.365 516.879 L 459.365 571.664 Z M 514.78 571.664 L 570.278 571.664 L 570.278 516.879 L 514.78 516.879 L 514.78 571.664 Z M 571.303 571.664 L 625.698 571.664 L 625.698 516.879 L 571.303 516.879 L 571.303 571.664 Z M 626.723 571.664 L 682.22 571.664 L 682.22 516.879 L 626.723 516.879 L 626.723 571.664 Z M 683.246 571.664 L 737.636 571.664 L 737.636 516.879 L 683.246 516.879 L 683.246 571.664 Z M 738.661 571.664 L 793.057 571.664 L 793.057 516.879 L 738.661 516.879 L 738.661 571.664 Z M 794.082 571.664 L 849.578 571.664 L 849.578 516.879 L 794.082 516.879 L 794.082 571.664 Z M 850.604 571.664 L 904.995 571.664 L 904.995 516.879 L 850.604 516.879 L 850.604 571.664 Z M 906.02 571.664 L 961.521 571.664 L 961.521 516.879 L 906.02 516.879 L 906.02 571.664 Z M 962.546 571.664 L 1016.937 571.664 L 1016.937 516.879 L 962.546 516.879 L 962.546 571.664 Z M 1017.963 571.664 L 1072.353 571.664 L 1072.353 516.879 L 1017.963 516.879 L 1017.963 571.664 Z M 1073.378 571.664 L 1128.88 571.664 L 1128.88 516.879 L 1073.378 516.879 L 1073.378 571.664 Z M 68.121 515.855 L 123.623 515.855 L 123.623 461.071 L 68.121 461.071 L 68.121 515.855 Z M 124.648 515.855 L 179.038 515.855 L 179.038 461.071 L 124.648 461.071 L 124.648 515.855 Z M 180.063 515.855 L 234.455 515.855 L 234.455 461.071 L 180.063 461.071 L 180.063 515.855 Z M 235.48 515.855 L 290.981 515.855 L 290.981 461.071 L 235.48 461.071 L 235.48 515.855 Z M 292.006 515.855 L 346.397 515.855 L 346.397 461.071 L 292.006 461.071 L 292.006 515.855 Z M 347.422 515.855 L 402.919 515.855 L 402.919 461.071 L 347.422 461.071 L 347.422 515.855 Z M 403.944 515.855 L 458.34 515.855 L 458.34 461.071 L 403.944 461.071 L 403.944 515.855 Z M 459.365 515.855 L 513.755 515.855 L 513.755 461.071 L 459.365 461.071 L 459.365 515.855 Z M 514.78 515.855 L 570.278 515.855 L 570.278 461.071 L 514.78 461.071 L 514.78 515.855 Z M 571.303 515.855 L 625.698 515.855 L 625.698 461.071 L 571.303 461.071 L 571.303 515.855 Z M 626.723 515.855 L 682.22 515.855 L 682.22 461.071 L 626.723 461.071 L 626.723 515.855 Z M 683.246 515.855 L 737.636 515.855 L 737.636 461.071 L 683.246 461.071 L 683.246 515.855 Z M 738.661 515.855 L 793.057 515.855 L 793.057 461.071 L 738.661 461.071 L 738.661 515.855 Z M 794.082 515.855 L 849.578 515.855 L 849.578 461.071 L 794.082 461.071 L 794.082 515.855 Z M 850.604 515.855 L 904.995 515.855 L 904.995 461.071 L 850.604 461.071 L 850.604 515.855 Z M 906.02 515.855 L 961.521 515.855 L 961.521 461.071 L 906.02 461.071 L 906.02 515.855 Z M 962.546 515.855 L 1016.937 515.855 L 1016.937 461.071 L 962.546 461.071 L 962.546 515.855 Z M 1017.963 515.855 L 1072.353 515.855 L 1072.353 461.071 L 1017.963 461.071 L 1017.963 515.855 Z M 1073.378 515.855 L 1128.88 515.855 L 1128.88 461.071 L 1073.378 461.071 L 1073.378 515.855 Z M 68.121 460.047 L 123.623 460.047 L 123.623 405.264 L 68.121 405.264 L 68.121 460.047 Z M 124.648 460.047 L 179.038 460.047 L 179.038 405.264 L 124.648 405.264 L 124.648 460.047 Z M 180.063 460.047 L 234.455 460.047 L 234.455 405.264 L 180.063 405.264 L 180.063 460.047 Z M 235.48 460.047 L 290.981 460.047 L 290.981 405.264 L 235.48 405.264 L 235.48 460.047 Z M 292.006 460.047 L 346.397 460.047 L 346.397 405.264 L 292.006 405.264 L 292.006 460.047 Z M 347.422 460.047 L 402.919 460.047 L 402.919 405.264 L 347.422 405.264 L 347.422 460.047 Z M 403.944 460.047 L 458.34 460.047 L 458.34 405.264 L 403.944 405.264 L 403.944 460.047 Z M 459.365 460.047 L 513.755 460.047 L 513.755 405.264 L 459.365 405.264 L 459.365 460.047 Z M 514.78 460.047 L 570.278 460.047 L 570.278 405.264 L 514.78 405.264 L 514.78 460.047 Z M 571.303 460.047 L 625.698 460.047 L 625.698 405.264 L 571.303 405.264 L 571.303 460.047 Z M 626.723 460.047 L 682.22 460.047 L 682.22 405.264 L 626.723 405.264 L 626.723 460.047 Z M 683.246 460.047 L 737.636 460.047 L 737.636 405.264 L 683.246 405.264 L 683.246 460.047 Z M 738.661 460.047 L 793.057 460.047 L 793.057 405.264 L 738.661 405.264 L 738.661 460.047 Z M 794.082 460.047 L 849.578 460.047 L 849.578 405.264 L 794.082 405.264 L 794.082 460.047 Z M 850.604 460.047 L 904.995 460.047 L 904.995 405.264 L 850.604 405.264 L 850.604 460.047 Z M 906.02 460.047 L 961.521 460.047 L 961.521 405.264 L 906.02 405.264 L 906.02 460.047 Z M 962.546 460.047 L 1016.937 460.047 L 1016.937 405.264 L 962.546 405.264 L 962.546 460.047 Z M 1017.963 460.047 L 1072.353 460.047 L 1072.353 405.264 L 1017.963 405.264 L 1017.963 460.047 Z M 1073.378 460.047 L 1128.88 460.047 L 1128.88 405.264 L 1073.378 405.264 L 1073.378 460.047 Z M 68.121 404.239 L 123.623 404.239 L 123.623 349.458 L 68.121 349.458 L 68.121 404.239 Z M 124.648 404.239 L 179.038 404.239 L 179.038 349.458 L 124.648 349.458 L 124.648 404.239 Z M 180.063 404.239 L 234.455 404.239 L 234.455 349.458 L 180.063 349.458 L 180.063 404.239 Z M 235.48 404.239 L 290.981 404.239 L 290.981 349.458 L 235.48 349.458 L 235.48 404.239 Z M 292.006 404.239 L 346.397 404.239 L 346.397 349.458 L 292.006 349.458 L 292.006 404.239 Z M 347.422 404.239 L 402.919 404.239 L 402.919 349.458 L 347.422 349.458 L 347.422 404.239 Z M 403.944 404.239 L 458.34 404.239 L 458.34 349.458 L 403.944 349.458 L 403.944 404.239 Z M 459.365 404.239 L 513.755 404.239 L 513.755 349.458 L 459.365 349.458 L 459.365 404.239 Z M 514.78 404.239 L 570.278 404.239 L 570.278 349.458 L 514.78 349.458 L 514.78 404.239 Z M 571.303 404.239 L 625.698 404.239 L 625.698 349.458 L 571.303 349.458 L 571.303 404.239 Z M 626.723 404.239 L 682.22 404.239 L 682.22 349.458 L 626.723 349.458 L 626.723 404.239 Z M 683.246 404.239 L 737.636 404.239 L 737.636 349.458 L 683.246 349.458 L 683.246 404.239 Z M 738.661 404.239 L 793.057 404.239 L 793.057 349.458 L 738.661 349.458 L 738.661 404.239 Z M 794.082 404.239 L 849.578 404.239 L 849.578 349.458 L 794.082 349.458 L 794.082 404.239 Z M 850.604 404.239 L 904.995 404.239 L 904.995 349.458 L 850.604 349.458 L 850.604 404.239 Z M 906.02 404.239 L 961.521 404.239 L 961.521 349.458 L 906.02 349.458 L 906.02 404.239 Z M 962.546 404.239 L 1016.937 404.239 L 1016.937 349.458 L 962.546 349.458 L 962.546 404.239 Z M 1017.963 404.239 L 1072.353 404.239 L 1072.353 349.458 L 1017.963 349.458 L 1017.963 404.239 Z M 1073.378 404.239 L 1128.88 404.239 L 1128.88 349.458 L 1073.378 349.458 L 1073.378 404.239 Z M 68.121 348.433 L 123.623 348.433 L 123.623 293.037 L 68.121 293.037 L 68.121 348.433 Z M 124.648 348.433 L 179.038 348.433 L 179.038 293.037 L 124.648 293.037 L 124.648 348.433 Z M 180.063 348.433 L 234.455 348.433 L 234.455 293.037 L 180.063 293.037 L 180.063 348.433 Z M 235.48 348.433 L 290.981 348.433 L 290.981 293.037 L 235.48 293.037 L 235.48 348.433 Z M 292.006 348.433 L 346.397 348.433 L 346.397 293.037 L 292.006 293.037 L 292.006 348.433 Z M 347.422 348.433 L 402.919 348.433 L 402.919 293.037 L 347.422 293.037 L 347.422 348.433 Z M 403.944 348.433 L 458.34 348.433 L 458.34 293.037 L 403.944 293.037 L 403.944 348.433 Z M 459.365 348.433 L 513.755 348.433 L 513.755 293.037 L 459.365 293.037 L 459.365 348.433 Z M 514.78 348.433 L 570.278 348.433 L 570.278 293.037 L 514.78 293.037 L 514.78 348.433 Z M 571.303 348.433 L 625.698 348.433 L 625.698 293.037 L 571.303 293.037 L 571.303 348.433 Z M 626.723 348.433 L 682.22 348.433 L 682.22 293.037 L 626.723 293.037 L 626.723 348.433 Z M 683.246 348.433 L 737.636 348.433 L 737.636 293.037 L 683.246 293.037 L 683.246 348.433 Z M 738.661 348.433 L 793.057 348.433 L 793.057 293.037 L 738.661 293.037 L 738.661 348.433 Z M 794.082 348.433 L 849.578 348.433 L 849.578 293.037 L 794.082 293.037 L 794.082 348.433 Z M 850.604 348.433 L 904.995 348.433 L 904.995 293.037 L 850.604 293.037 L 850.604 348.433 Z M 906.02 348.433 L 961.521 348.433 L 961.521 293.037 L 906.02 293.037 L 906.02 348.433 Z M 962.546 348.433 L 1016.937 348.433 L 1016.937 293.037 L 962.546 293.037 L 962.546 348.433 Z M 1017.963 348.433 L 1072.353 348.433 L 1072.353 293.037 L 1017.963 293.037 L 1017.963 348.433 Z M 1073.378 348.433 L 1128.88 348.433 L 1128.88 293.037 L 1073.378 293.037 L 1073.378 348.433 Z M 68.121 237.227 L 68.121 292.013 L 123.623 292.013 L 123.623 237.227 L 68.121 237.227 Z M 124.648 237.227 L 124.648 292.013 L 179.038 292.013 L 179.038 237.227 L 124.648 237.227 Z M 180.063 237.227 L 180.063 292.013 L 234.455 292.013 L 234.455 237.227 L 180.063 237.227 Z M 235.48 237.227 L 235.48 292.013 L 290.981 292.013 L 290.981 237.227 L 235.48 237.227 Z M 292.006 237.227 L 292.006 292.013 L 346.397 292.013 L 346.397 237.227 L 292.006 237.227 Z M 347.422 237.227 L 347.422 292.013 L 402.919 292.013 L 402.919 237.227 L 347.422 237.227 Z M 403.944 237.227 L 403.944 292.013 L 458.34 292.013 L 458.34 237.227 L 403.944 237.227 Z M 459.365 237.227 L 459.365 292.013 L 513.755 292.013 L 513.755 237.227 L 459.365 237.227 Z M 514.78 237.227 L 514.78 292.013 L 570.278 292.013 L 570.278 237.227 L 514.78 237.227 Z M 571.303 237.227 L 571.303 292.013 L 625.698 292.013 L 625.698 237.227 L 571.303 237.227 Z M 626.723 237.227 L 626.723 292.013 L 682.22 292.013 L 682.22 237.227 L 626.723 237.227 Z M 683.246 237.227 L 683.246 292.013 L 737.636 292.013 L 737.636 237.227 L 683.246 237.227 Z M 738.661 237.227 L 738.661 292.013 L 793.057 292.013 L 793.057 237.227 L 738.661 237.227 Z M 794.082 237.227 L 794.082 292.013 L 849.578 292.013 L 849.578 237.227 L 794.082 237.227 Z M 850.604 237.227 L 850.604 292.013 L 904.995 292.013 L 904.995 237.227 L 850.604 237.227 Z M 906.02 237.227 L 906.02 292.013 L 961.521 292.013 L 961.521 237.227 L 906.02 237.227 Z M 962.546 237.227 L 962.546 292.013 L 1016.937 292.013 L 1016.937 237.227 L 962.546 237.227 Z M 1017.963 237.227 L 1017.963 292.013 L 1072.353 292.013 L 1072.353 237.227 L 1017.963 237.227 Z M 1073.378 237.227 L 1073.378 292.013 L 1128.88 292.013 L 1128.88 237.227 L 1073.378 237.227 Z M 68.121 236.203 L 123.623 236.203 L 123.623 181.422 L 68.121 181.422 L 68.121 236.203 Z M 124.648 236.203 L 179.038 236.203 L 179.038 181.422 L 124.648 181.422 L 124.648 236.203 Z M 180.063 236.203 L 234.455 236.203 L 234.455 181.422 L 180.063 181.422 L 180.063 236.203 Z M 235.48 236.203 L 290.981 236.203 L 290.981 181.422 L 235.48 181.422 L 235.48 236.203 Z M 292.006 236.203 L 346.397 236.203 L 346.397 181.422 L 292.006 181.422 L 292.006 236.203 Z M 347.422 236.203 L 402.919 236.203 L 402.919 181.422 L 347.422 181.422 L 347.422 236.203 Z M 403.944 236.203 L 458.34 236.203 L 458.34 181.422 L 403.944 181.422 L 403.944 236.203 Z M 459.365 236.203 L 513.755 236.203 L 513.755 181.422 L 459.365 181.422 L 459.365 236.203 Z M 514.78 236.203 L 570.278 236.203 L 570.278 181.422 L 514.78 181.422 L 514.78 236.203 Z M 571.303 236.203 L 625.698 236.203 L 625.698 181.422 L 571.303 181.422 L 571.303 236.203 Z M 626.723 236.203 L 682.22 236.203 L 682.22 181.422 L 626.723 181.422 L 626.723 236.203 Z M 683.246 236.203 L 737.636 236.203 L 737.636 181.422 L 683.246 181.422 L 683.246 236.203 Z M 738.661 236.203 L 793.057 236.203 L 793.057 181.422 L 738.661 181.422 L 738.661 236.203 Z M 794.082 236.203 L 849.578 236.203 L 849.578 181.422 L 794.082 181.422 L 794.082 236.203 Z M 850.604 236.203 L 904.995 236.203 L 904.995 181.422 L 850.604 181.422 L 850.604 236.203 Z M 906.02 236.203 L 961.521 236.203 L 961.521 181.422 L 906.02 181.422 L 906.02 236.203 Z M 962.546 236.203 L 1016.937 236.203 L 1016.937 181.422 L 962.546 181.422 L 962.546 236.203 Z M 1017.963 236.203 L 1072.353 236.203 L 1072.353 181.422 L 1017.963 181.422 L 1017.963 236.203 Z M 1073.378 236.203 L 1128.88 236.203 L 1128.88 181.422 L 1073.378 181.422 L 1073.378 236.203 Z M 68.121 180.398 L 123.623 180.398 L 123.623 125.613 L 68.121 125.613 L 68.121 180.398 Z M 124.648 180.398 L 179.038 180.398 L 179.038 125.613 L 124.648 125.613 L 124.648 180.398 Z M 180.063 180.398 L 234.455 180.398 L 234.455 125.613 L 180.063 125.613 L 180.063 180.398 Z M 235.48 180.398 L 290.981 180.398 L 290.981 125.613 L 235.48 125.613 L 235.48 180.398 Z M 292.006 180.398 L 346.397 180.398 L 346.397 125.613 L 292.006 125.613 L 292.006 180.398 Z M 347.422 180.398 L 402.919 180.398 L 402.919 125.613 L 347.422 125.613 L 347.422 180.398 Z M 403.944 180.398 L 458.34 180.398 L 458.34 125.613 L 403.944 125.613 L 403.944 180.398 Z M 459.365 180.398 L 513.755 180.398 L 513.755 125.613 L 459.365 125.613 L 459.365 180.398 Z M 514.78 180.398 L 570.278 180.398 L 570.278 125.613 L 514.78 125.613 L 514.78 180.398 Z M 571.303 180.398 L 625.698 180.398 L 625.698 125.613 L 571.303 125.613 L 571.303 180.398 Z M 626.723 180.398 L 682.22 180.398 L 682.22 125.613 L 626.723 125.613 L 626.723 180.398 Z M 683.246 180.398 L 737.636 180.398 L 737.636 125.613 L 683.246 125.613 L 683.246 180.398 Z M 738.661 180.398 L 793.057 180.398 L 793.057 125.613 L 738.661 125.613 L 738.661 180.398 Z M 794.082 180.398 L 849.578 180.398 L 849.578 125.613 L 794.082 125.613 L 794.082 180.398 Z M 850.604 180.398 L 904.995 180.398 L 904.995 125.613 L 850.604 125.613 L 850.604 180.398 Z M 906.02 180.398 L 961.521 180.398 L 961.521 125.613 L 906.02 125.613 L 906.02 180.398 Z M 962.546 180.398 L 1016.937 180.398 L 1016.937 125.613 L 962.546 125.613 L 962.546 180.398 Z M 1017.963 180.398 L 1072.353 180.398 L 1072.353 125.613 L 1017.963 125.613 L 1017.963 180.398 Z M 1073.378 180.398 L 1128.88 180.398 L 1128.88 125.613 L 1073.378 125.613 L 1073.378 180.398 Z M 68.121 124.589 L 123.623 124.589 L 123.623 69.808 L 68.121 69.808 L 68.121 124.589 Z M 124.648 124.589 L 179.038 124.589 L 179.038 69.808 L 124.648 69.808 L 124.648 124.589 Z M 180.063 124.589 L 234.455 124.589 L 234.455 69.808 L 180.063 69.808 L 180.063 124.589 Z M 235.48 124.589 L 290.981 124.589 L 290.981 69.808 L 235.48 69.808 L 235.48 124.589 Z M 292.006 124.589 L 346.397 124.589 L 346.397 69.808 L 292.006 69.808 L 292.006 124.589 Z M 347.422 124.589 L 402.919 124.589 L 402.919 69.808 L 347.422 69.808 L 347.422 124.589 Z M 403.944 124.589 L 458.34 124.589 L 458.34 69.808 L 403.944 69.808 L 403.944 124.589 Z M 459.365 124.589 L 513.755 124.589 L 513.755 69.808 L 459.365 69.808 L 459.365 124.589 Z M 514.78 124.589 L 570.278 124.589 L 570.278 69.808 L 514.78 69.808 L 514.78 124.589 Z M 571.303 124.589 L 625.698 124.589 L 625.698 69.808 L 571.303 69.808 L 571.303 124.589 Z M 626.723 124.589 L 682.22 124.589 L 682.22 69.808 L 626.723 69.808 L 626.723 124.589 Z M 683.246 124.589 L 737.636 124.589 L 737.636 69.808 L 683.246 69.808 L 683.246 124.589 Z M 738.661 124.589 L 793.057 124.589 L 793.057 69.808 L 738.661 69.808 L 738.661 124.589 Z M 794.082 124.589 L 849.578 124.589 L 849.578 69.808 L 794.082 69.808 L 794.082 124.589 Z M 850.604 124.589 L 904.995 124.589 L 904.995 69.808 L 850.604 69.808 L 850.604 124.589 Z M 906.02 124.589 L 961.521 124.589 L 961.521 69.808 L 906.02 69.808 L 906.02 124.589 Z M 962.546 124.589 L 1016.937 124.589 L 1016.937 69.808 L 962.546 69.808 L 962.546 124.589 Z M 1017.963 124.589 L 1072.353 124.589 L 1072.353 69.808 L 1017.963 69.808 L 1017.963 124.589 Z M 1073.378 124.589 L 1128.88 124.589 L 1128.88 69.808 L 1073.378 69.808 L 1073.378 124.589 Z M 68.121 68.783 L 123.623 68.783 L 123.623 14 L 68.121 14 L 68.121 68.783 Z M 124.648 68.783 L 179.038 68.783 L 179.038 14 L 124.648 14 L 124.648 68.783 Z M 180.063 68.783 L 234.455 68.783 L 234.455 14 L 180.063 14 L 180.063 68.783 Z M 235.48 68.783 L 290.981 68.783 L 290.981 14 L 235.48 14 L 235.48 68.783 Z M 292.006 68.783 L 346.397 68.783 L 346.397 14 L 292.006 14 L 292.006 68.783 Z M 347.422 68.783 L 402.919 68.783 L 402.919 14 L 347.422 14 L 347.422 68.783 Z M 403.944 68.783 L 458.34 68.783 L 458.34 14 L 403.944 14 L 403.944 68.783 Z M 459.365 68.783 L 513.755 68.783 L 513.755 14 L 459.365 14 L 459.365 68.783 Z M 514.78 68.783 L 570.278 68.783 L 570.278 14 L 514.78 14 L 514.78 68.783 Z M 571.303 68.783 L 625.698 68.783 L 625.698 14 L 571.303 14 L 571.303 68.783 Z M 626.723 68.783 L 682.22 68.783 L 682.22 14 L 626.723 14 L 626.723 68.783 Z M 683.246 68.783 L 737.636 68.783 L 737.636 14 L 683.246 14 L 683.246 68.783 Z M 738.661 68.783 L 793.057 68.783 L 793.057 14 L 738.661 14 L 738.661 68.783 Z M 794.082 68.783 L 849.578 68.783 L 849.578 14 L 794.082 14 L 794.082 68.783 Z M 850.604 68.783 L 904.995 68.783 L 904.995 14 L 850.604 14 L 850.604 68.783 Z M 906.02 68.783 L 961.521 68.783 L 961.521 14 L 906.02 14 L 906.02 68.783 Z M 962.546 68.783 L 1016.937 68.783 L 1016.937 14 L 962.546 14 L 962.546 68.783 Z M 1017.963 68.783 L 1072.353 68.783 L 1072.353 14 L 1017.963 14 L 1017.963 68.783 Z M 1073.378 68.783 L 1128.88 68.783 L 1128.88 14 L 1073.378 14 L 1073.378 68.783 Z" fill="currentColor" fill-rule="evenodd"></path>
</svg>