<svg width="57" height="57" viewBox="0 0 57 57" fill="none" xmlns="http://www.w3.org/2000/svg">
<rect x="0.5" y="0.5" width="56" height="56" rx="13.75" stroke="#B2FF00"/>
<path d="M14.9146 25.882C13.7224 25.2602 12.6112 24.6806 11.5 24.101C11.5176 24.0323 11.5351 23.9635 11.5526 23.8948C14.5883 23.6894 17.6234 23.4735 20.661 23.3015C20.8668 23.2899 21.1771 23.5624 21.2941 23.7797C22.6571 26.313 23.9923 28.8611 25.2351 31.5788C24.0256 30.9512 22.8161 30.3236 21.5069 29.6442C20.1198 31.9869 18.6755 34.2814 17.4007 36.6654C17.0066 37.4025 17.0736 38.3833 16.9447 39.1608C16.9225 39.1292 16.7531 38.9246 16.624 38.6974C15.4828 36.6897 14.369 34.6662 13.2062 32.671C12.2979 31.1126 12.3841 29.6165 13.3576 28.1418C13.8369 27.4158 14.344 26.7081 14.9146 25.882Z" fill="#B2FF00"/>
<path d="M39.1343 15.7644C40.3367 15.1993 41.4563 14.6731 42.7913 14.0456C42.6248 14.4392 42.5687 14.6364 42.4658 14.8054C40.9866 17.2383 39.5116 19.6738 38.0021 22.088C37.8398 22.3475 37.4343 22.6767 37.1989 22.6371C34.4157 22.1686 31.6434 21.6359 28.621 21.0741C29.8137 20.424 30.7929 19.8902 31.8891 19.2926C30.2387 16.5433 29.6833 13.1857 26.918 11.0291C29.7096 11.0291 32.518 10.9292 35.3097 11.0995C36.006 11.142 36.7924 11.9486 37.2823 12.5951C38.0212 13.57 38.5357 14.713 39.1343 15.7644Z" fill="#B2FF00"/>
<path d="M35.4972 30.0631C35.4972 31.5713 35.4972 32.8591 35.4972 34.2551C38.7344 34.1892 41.8425 34.4503 44.9652 34.1177C44.9344 34.1875 44.8728 34.3833 44.769 34.5536C43.5138 36.613 42.2387 38.6606 40.9983 40.7288C40.3422 41.8227 39.4029 42.2935 38.1403 42.2407C37.306 42.2058 36.469 42.2341 35.5194 42.2341C35.5194 43.4379 35.5194 44.5904 35.5194 46C35.196 45.6582 35.0289 45.5259 34.9178 45.3572C33.4617 43.1465 32.0013 40.9381 30.58 38.7052C30.4199 38.4536 30.342 37.9669 30.4789 37.7399C31.9656 35.273 33.5019 32.8356 35.0302 30.3936C35.0764 30.3198 35.182 30.2827 35.4972 30.0631Z" fill="#B2FF00"/>
<path d="M29.2052 16.3753C27.7746 18.6284 26.3603 20.8558 24.8954 23.1629C22.5801 21.7945 20.3615 20.4832 18.0206 19.0996C18.8167 17.8177 19.5813 16.5795 20.3532 15.3459C20.7621 14.6925 21.178 14.0434 21.6004 13.3986C23.0026 11.258 25.8116 11.1354 27.3539 13.2179C28.0659 14.1793 28.5769 15.288 29.2052 16.3753Z" fill="#B2FF00"/>
<path d="M42.5467 22.2387C43.8428 24.4525 45.1344 26.4934 46.2543 28.6235C47.1656 30.3567 45.4054 32.9082 43.2192 33.1061C42.1826 33.2 41.1273 33.1682 40.0873 33.0961C39.8043 33.0765 39.4897 32.7462 39.2885 32.4836C38.9022 31.9791 38.5692 31.4311 38.2449 30.8831C37.3746 29.4123 36.5206 27.932 35.5899 26.335C37.8852 24.9836 40.157 23.6459 42.5467 22.2387Z" fill="#B2FF00"/>
<path d="M27.9769 33.9588C27.9769 36.7377 27.9769 39.3808 27.9769 42.1722C26.5006 42.1722 25.0331 42.1717 23.5655 42.1724C22.8578 42.1727 22.1498 42.1883 21.4423 42.1744C19.1029 42.1285 17.5236 39.948 18.3514 37.7701C18.8003 36.5891 19.4732 35.4887 20.0956 34.3799C20.2091 34.1777 20.5638 34.0049 20.8118 33.9986C22.4286 33.9577 24.0467 33.9653 25.6645 33.9593C26.3996 33.9565 27.1347 33.9588 27.9769 33.9588Z" fill="#B2FF00"/>
</svg>
