<svg width="57" height="57" viewBox="0 0 57 57" fill="none" xmlns="http://www.w3.org/2000/svg">
<rect x="0.5" y="0.5" width="56" height="56" rx="13.75" stroke="#B2FF00"/>
<path d="M28.0046 14C25.5009 13.9995 23.0398 14.647 20.8607 15.8797C18.6817 17.1124 16.8589 18.8882 15.5699 21.0343C14.2808 23.1804 13.5694 25.6236 13.5048 28.1262C13.4403 30.6287 14.0248 33.1053 15.2015 35.315L13.6189 40.0624C13.4878 40.4554 13.4688 40.8772 13.564 41.2805C13.6591 41.6837 13.8647 42.0525 14.1578 42.3455C14.4508 42.6385 14.8196 42.844 15.2229 42.9392C15.6262 43.0344 16.048 43.0154 16.4411 42.8843L21.1889 41.3018C23.1337 42.3361 25.2886 42.9138 27.4901 42.9911C29.6915 43.0683 31.8816 42.6431 33.8942 41.7476C35.9067 40.8521 37.6888 39.51 39.1051 37.8231C40.5214 36.1361 41.5348 34.1487 42.0683 32.0117C42.6018 29.8747 42.6414 27.6442 42.184 25.4896C41.7267 23.335 40.7845 21.3129 39.4289 19.5768C38.0733 17.8407 36.34 16.4362 34.3605 15.4699C32.381 14.5036 30.2074 14.0009 28.0046 14ZM21.8694 30.1731C21.5384 30.1731 21.2149 30.075 20.9398 29.8911C20.6646 29.7073 20.4501 29.446 20.3235 29.1403C20.1968 28.8345 20.1637 28.4981 20.2283 28.1736C20.2928 27.8491 20.4522 27.5509 20.6862 27.317C20.9202 27.083 21.2183 26.9236 21.5429 26.8591C21.8675 26.7945 22.2039 26.8276 22.5097 26.9543C22.8154 27.0809 23.0767 27.2954 23.2606 27.5705C23.4445 27.8456 23.5426 28.1691 23.5426 28.5C23.5426 28.9437 23.3663 29.3693 23.0525 29.683C22.7387 29.9968 22.3131 30.1731 21.8694 30.1731ZM28.0046 30.1731C27.6736 30.1731 27.3501 30.075 27.075 29.8911C26.7998 29.7073 26.5853 29.446 26.4587 29.1403C26.332 28.8345 26.2989 28.4981 26.3635 28.1736C26.428 27.8491 26.5874 27.5509 26.8214 27.317C27.0554 27.083 27.3535 26.9236 27.6781 26.8591C28.0027 26.7945 28.3391 26.8276 28.6449 26.9543C28.9506 27.0809 29.2119 27.2954 29.3958 27.5705C29.5797 27.8456 29.6778 28.1691 29.6778 28.5C29.6778 28.9437 29.5015 29.3693 29.1877 29.683C28.8739 29.9968 28.4483 30.1731 28.0046 30.1731ZM34.1398 30.1731C33.8088 30.1731 33.4853 30.075 33.2102 29.8911C32.935 29.7073 32.7205 29.446 32.5939 29.1403C32.4672 28.8345 32.4341 28.4981 32.4987 28.1736C32.5632 27.8491 32.7226 27.5509 32.9566 27.317C33.1906 27.083 33.4888 26.9236 33.8133 26.8591C34.1379 26.7945 34.4743 26.8276 34.7801 26.9543C35.0858 27.0809 35.3471 27.2954 35.531 27.5705C35.7149 27.8456 35.813 28.1691 35.813 28.5C35.813 28.9437 35.6367 29.3693 35.3229 29.683C35.0091 29.9968 34.5835 30.1731 34.1398 30.1731Z" fill="#B2FF00"/>
</svg>
