<svg width="110" height="44" viewBox="0 0 110 44" fill="none" xmlns="http://www.w3.org/2000/svg">
<path d="M2.80714 17.8047C2.68847 17.8047 2.59261 17.7727 2.51958 17.7088C2.45568 17.6449 2.41003 17.5536 2.38265 17.435L0.616202 8.64382C0.607073 8.6073 0.602509 8.57535 0.602509 8.54796C0.602509 8.52058 0.602509 8.50232 0.602509 8.49319C0.602509 8.42016 0.629895 8.35626 0.684669 8.30148C0.739442 8.24671 0.803345 8.21932 0.876376 8.21932H1.58843C1.78014 8.21932 1.88969 8.29692 1.91707 8.45211L3.3138 15.5179L4.79268 10.6704C4.82007 10.5883 4.86571 10.5152 4.92962 10.4513C5.00265 10.3783 5.10307 10.3418 5.23087 10.3418H5.73752C5.87446 10.3418 5.97488 10.3783 6.03878 10.4513C6.10268 10.5152 6.14376 10.5883 6.16202 10.6704L7.6546 15.5179L9.03763 8.45211C9.06502 8.29692 9.17913 8.21932 9.37996 8.21932H10.092C10.165 8.21932 10.229 8.24671 10.2837 8.30148C10.3385 8.35626 10.3659 8.42016 10.3659 8.49319C10.3659 8.50232 10.3613 8.52058 10.3522 8.54796C10.3522 8.57535 10.3522 8.6073 10.3522 8.64382L8.58575 17.435C8.55836 17.5536 8.50815 17.6449 8.43512 17.7088C8.37122 17.7727 8.27993 17.8047 8.16125 17.8047H7.62721C7.49941 17.8047 7.39899 17.7727 7.32596 17.7088C7.25292 17.6449 7.20272 17.5628 7.17533 17.4624L5.47735 12.2452L3.79307 17.4624C3.75655 17.5628 3.70178 17.6449 3.62874 17.7088C3.56484 17.7727 3.46899 17.8047 3.34118 17.8047H2.80714ZM12.4717 17.8047C12.3713 17.8047 12.2937 17.7773 12.2389 17.7225C12.1841 17.6586 12.1567 17.581 12.1567 17.4897L12.1567 8.54796C12.1567 8.44755 12.1841 8.36995 12.2389 8.31518C12.2937 8.25128 12.3713 8.21932 12.4717 8.21932L18.127 8.21932C18.2275 8.21932 18.305 8.25128 18.3598 8.31518C18.4146 8.36995 18.442 8.44755 18.442 8.54796V9.06831C18.442 9.16873 18.4146 9.24633 18.3598 9.3011C18.305 9.35587 18.2275 9.38326 18.127 9.38326L13.4713 9.38326L13.4713 12.3821L17.8258 12.3821C17.9262 12.3821 18.0038 12.4141 18.0586 12.478C18.1133 12.5327 18.1407 12.6103 18.1407 12.7108V13.2174C18.1407 13.3087 18.1133 13.3863 18.0586 13.4502C18.0038 13.505 17.9262 13.5324 17.8258 13.5324L13.4713 13.5324V16.6408L18.2366 16.6408C18.337 16.6408 18.4146 16.6681 18.4694 16.7229C18.5241 16.7777 18.5515 16.8553 18.5515 16.9557V17.4897C18.5515 17.581 18.5241 17.6586 18.4694 17.7225C18.4146 17.7773 18.337 17.8047 18.2366 17.8047L12.4717 17.8047ZM20.776 17.8047C20.6755 17.8047 20.5979 17.7773 20.5432 17.7225C20.4884 17.6586 20.461 17.581 20.461 17.4897L20.461 8.54796C20.461 8.44755 20.4884 8.36995 20.5432 8.31518C20.5979 8.25128 20.6755 8.21932 20.776 8.21932H24.5279C25.2126 8.21932 25.7695 8.33344 26.1985 8.56166C26.6367 8.78075 26.9562 9.08201 27.1571 9.46542C27.367 9.84884 27.472 10.2779 27.472 10.7526C27.472 11.1269 27.4081 11.451 27.2803 11.7248C27.1616 11.9896 27.011 12.2087 26.8284 12.3821C26.6458 12.5464 26.4678 12.6742 26.2944 12.7655C26.6504 12.939 26.9654 13.222 27.2392 13.6145C27.5222 14.0071 27.6637 14.4818 27.6637 15.0386C27.6637 15.5407 27.5496 16.0017 27.3214 16.4217C27.0932 16.8416 26.7508 17.1794 26.2944 17.435C25.8471 17.6814 25.2902 17.8047 24.6238 17.8047H20.776ZM21.803 16.6955H24.4458C25.0392 16.6955 25.4956 16.5358 25.8151 16.2163C26.1346 15.8967 26.2944 15.5042 26.2944 15.0386C26.2944 14.5548 26.1346 14.1577 25.8151 13.8473C25.4956 13.5278 25.0392 13.368 24.4458 13.368H21.803L21.803 16.6955ZM21.803 12.2726H24.3225C24.9068 12.2726 25.3495 12.1402 25.6508 11.8755C25.952 11.6016 26.1027 11.2319 26.1027 10.7663C26.1027 10.3007 25.952 9.94469 25.6508 9.69821C25.3495 9.45173 24.9068 9.32849 24.3225 9.32849H21.803V12.2726ZM32.4971 17.9416C31.9219 17.9416 31.4198 17.8732 30.9908 17.7362C30.5617 17.5902 30.2011 17.3985 29.909 17.1611C29.6169 16.9237 29.3932 16.6636 29.238 16.3806C29.092 16.0976 29.0144 15.8055 29.0052 15.5042C29.0052 15.422 29.0326 15.3581 29.0874 15.3125C29.1422 15.2668 29.2106 15.244 29.2928 15.244H29.9638C30.0459 15.244 30.119 15.2623 30.1829 15.2988C30.2468 15.3353 30.3015 15.4129 30.3472 15.5316C30.4385 15.8602 30.5937 16.1158 30.8128 16.2984C31.041 16.481 31.3012 16.6088 31.5933 16.6818C31.8945 16.7457 32.1958 16.7777 32.4971 16.7777C33.1269 16.7777 33.6382 16.6271 34.0307 16.3258C34.4233 16.0245 34.6195 15.5818 34.6195 14.9975C34.6195 14.4042 34.4415 13.9797 34.0855 13.7241C33.7295 13.4685 33.2365 13.3406 32.6066 13.3406H31.3057C31.2144 13.3406 31.1368 13.3133 31.0729 13.2585C31.0182 13.2037 30.9908 13.1261 30.9908 13.0257V12.656C30.9908 12.5738 31.0045 12.5054 31.0319 12.4506C31.0684 12.3867 31.1049 12.3319 31.1414 12.2863L33.7979 9.38326L29.7584 9.38326C29.6671 9.38326 29.5895 9.35587 29.5256 9.3011C29.4708 9.24633 29.4434 9.16873 29.4434 9.06831V8.54796C29.4434 8.44755 29.4708 8.36995 29.5256 8.31518C29.5895 8.25128 29.6671 8.21932 29.7584 8.21932H35.222C35.3225 8.21932 35.4 8.25128 35.4548 8.31518C35.5187 8.36995 35.5507 8.44755 35.5507 8.54796V9.04093C35.5507 9.10483 35.5324 9.16417 35.4959 9.21894C35.4685 9.26459 35.4366 9.31023 35.4 9.35587L32.7572 12.3L32.9763 12.3136C33.5788 12.3319 34.1037 12.4414 34.5511 12.6423C35.0075 12.8431 35.359 13.1444 35.6055 13.546C35.8611 13.9386 35.9889 14.4361 35.9889 15.0386C35.9889 15.6503 35.8382 16.1752 35.537 16.6134C35.2357 17.0424 34.8204 17.3711 34.2909 17.5993C33.7614 17.8275 33.1635 17.9416 32.4971 17.9416Z" fill="white"/>
<path d="M45.1149 36.873C45.0418 36.873 44.9779 36.8457 44.9232 36.7909C44.8684 36.7361 44.841 36.6722 44.841 36.5992C44.841 36.5535 44.8456 36.5033 44.8547 36.4486L48.2507 27.5889C48.2872 27.4976 48.3374 27.4246 48.4013 27.3698C48.4652 27.3151 48.561 27.2877 48.6888 27.2877H49.62C49.7387 27.2877 49.83 27.3151 49.8939 27.3698C49.9669 27.4246 50.0217 27.4976 50.0582 27.5889L53.4404 36.4486C53.4587 36.5033 53.4678 36.5535 53.4678 36.5992C53.4678 36.6722 53.4404 36.7361 53.3857 36.7909C53.3309 36.8457 53.267 36.873 53.194 36.873H52.4956C52.3861 36.873 52.3039 36.8457 52.2491 36.7909C52.2035 36.7361 52.1715 36.6859 52.1533 36.6403L51.4001 34.6958H46.9087L46.1556 36.6403C46.1464 36.6859 46.1145 36.7361 46.0597 36.7909C46.0049 36.8457 45.9228 36.873 45.8132 36.873H45.1149ZM47.3058 33.5182H51.003L49.1544 28.657L47.3058 33.5182ZM55.2469 36.873C55.1465 36.873 55.0689 36.8457 55.0141 36.7909C54.9593 36.727 54.932 36.6494 54.932 36.5581V27.6026C54.932 27.5113 54.9593 27.4383 55.0141 27.3835C55.0689 27.3196 55.1465 27.2877 55.2469 27.2877H55.9727C56.0639 27.2877 56.137 27.3196 56.1917 27.3835C56.2556 27.4383 56.2876 27.5113 56.2876 27.6026V36.5581C56.2876 36.6494 56.2556 36.727 56.1917 36.7909C56.137 36.8457 56.0639 36.873 55.9727 36.873H55.2469ZM62.3477 36.873C62.2472 36.873 62.1697 36.8457 62.1149 36.7909C62.0601 36.727 62.0327 36.6494 62.0327 36.5581L62.0327 27.6163C62.0327 27.5159 62.0601 27.4383 62.1149 27.3835C62.1697 27.3196 62.2472 27.2877 62.3477 27.2877H67.9346C68.035 27.2877 68.1126 27.3196 68.1674 27.3835C68.2221 27.4383 68.2495 27.5159 68.2495 27.6163V28.1641C68.2495 28.2645 68.2221 28.3421 68.1674 28.3968C68.1126 28.4516 68.035 28.479 67.9346 28.479H63.361V31.6696H67.6607C67.7611 31.6696 67.8387 31.7015 67.8935 31.7654C67.9483 31.8202 67.9756 31.8978 67.9756 31.9982V32.5459C67.9756 32.6372 67.9483 32.7148 67.8935 32.7787C67.8387 32.8335 67.7611 32.8609 67.6607 32.8609H63.361V36.5581C63.361 36.6494 63.329 36.727 63.2651 36.7909C63.2103 36.8457 63.1328 36.873 63.0323 36.873H62.3477ZM73.6445 37.01C72.8777 37.01 72.2158 36.873 71.6589 36.5992C71.1112 36.3253 70.6867 35.9099 70.3855 35.3531C70.0933 34.7871 69.9473 34.0613 69.9473 33.1758V27.6163C69.9473 27.5159 69.9747 27.4383 70.0294 27.3835C70.0842 27.3196 70.1618 27.2877 70.2622 27.2877H70.9606C71.061 27.2877 71.1386 27.3196 71.1934 27.3835C71.2573 27.4383 71.2892 27.5159 71.2892 27.6163V33.2032C71.2892 34.0979 71.4992 34.7597 71.9191 35.1888C72.3391 35.6178 72.9142 35.8324 73.6445 35.8324C74.3657 35.8324 74.9362 35.6178 75.3562 35.1888C75.7852 34.7597 75.9997 34.0979 75.9997 33.2032V27.6163C75.9997 27.5159 76.0271 27.4383 76.0819 27.3835C76.1458 27.3196 76.2234 27.2877 76.3147 27.2877L77.0268 27.2877C77.118 27.2877 77.1911 27.3196 77.2458 27.3835C77.3097 27.4383 77.3417 27.5159 77.3417 27.6163V33.1758C77.3417 34.0613 77.1911 34.7871 76.8898 35.3531C76.5977 35.9099 76.1778 36.3253 75.63 36.5992C75.0823 36.873 74.4204 37.01 73.6445 37.01ZM82.7119 37.01C81.9176 37.01 81.2512 36.8913 80.7126 36.654C80.174 36.4075 79.7587 36.0925 79.4665 35.7091C79.1835 35.3166 79.0329 34.9012 79.0146 34.463C79.0146 34.39 79.042 34.3261 79.0968 34.2713C79.1607 34.2074 79.2337 34.1755 79.3159 34.1755H80.0143C80.1238 34.1755 80.206 34.2028 80.2607 34.2576C80.3155 34.3124 80.352 34.3763 80.3703 34.4493C80.4159 34.6684 80.5255 34.8875 80.6989 35.1066C80.8815 35.3166 81.1326 35.4946 81.4521 35.6406C81.7807 35.7776 82.2006 35.846 82.7119 35.846C83.4969 35.846 84.0721 35.7091 84.4372 35.4352C84.8115 35.1522 84.9986 34.778 84.9986 34.3124C84.9986 33.9929 84.8982 33.7373 84.6974 33.5456C84.5057 33.3447 84.209 33.1667 83.8073 33.0115C83.4057 32.8563 82.8853 32.6874 82.2463 32.5049C81.5799 32.3132 81.0276 32.1032 80.5894 31.875C80.1512 31.6467 79.8226 31.3637 79.6035 31.026C79.3935 30.6882 79.2885 30.2591 79.2885 29.7388C79.2885 29.2458 79.4209 28.8076 79.6856 28.4242C79.9504 28.0317 80.3292 27.7213 80.8222 27.4931C81.3243 27.2649 81.9313 27.1507 82.6434 27.1507C83.2094 27.1507 83.7023 27.2283 84.1223 27.3835C84.5513 27.5296 84.9074 27.7304 85.1904 27.986C85.4734 28.2325 85.6879 28.5018 85.8339 28.794C85.98 29.077 86.0576 29.3554 86.0667 29.6293C86.0667 29.6932 86.0439 29.7571 85.9983 29.821C85.9526 29.8757 85.8796 29.9031 85.7792 29.9031H85.0534C84.9895 29.9031 84.9211 29.8849 84.848 29.8483C84.7841 29.8118 84.7339 29.7434 84.6974 29.6429C84.6426 29.2687 84.4327 28.9537 84.0675 28.6981C83.7023 28.4425 83.2276 28.3147 82.6434 28.3147C82.05 28.3147 81.5662 28.4288 81.1919 28.657C80.8267 28.8852 80.6442 29.2413 80.6442 29.7251C80.6442 30.0355 80.7309 30.2957 80.9043 30.5056C81.0778 30.7065 81.3516 30.8845 81.7259 31.0397C82.1002 31.1949 82.5886 31.3592 83.1911 31.5326C83.9214 31.7335 84.5194 31.948 84.985 32.1762C85.4505 32.3953 85.7929 32.6737 86.012 33.0115C86.2402 33.3402 86.3543 33.7647 86.3543 34.285C86.3543 34.8601 86.2037 35.3531 85.9024 35.7639C85.6012 36.1656 85.1767 36.4759 84.6289 36.695C84.0903 36.905 83.4513 37.01 82.7119 37.01ZM88.464 36.873C88.3636 36.873 88.286 36.8457 88.2312 36.7909C88.1765 36.727 88.1491 36.6494 88.1491 36.5581V27.6026C88.1491 27.5113 88.1765 27.4383 88.2312 27.3835C88.286 27.3196 88.3636 27.2877 88.464 27.2877H89.1898C89.2811 27.2877 89.3541 27.3196 89.4089 27.3835C89.4728 27.4383 89.5047 27.5113 89.5047 27.6026V36.5581C89.5047 36.6494 89.4728 36.727 89.4089 36.7909C89.3541 36.8457 89.2811 36.873 89.1898 36.873H88.464ZM95.3304 37.01C94.5544 37.01 93.888 36.8776 93.3312 36.6129C92.7743 36.339 92.3453 35.9236 92.044 35.3668C91.7427 34.8008 91.5739 34.0933 91.5373 33.2443C91.5282 32.8426 91.5236 32.4592 91.5236 32.0941C91.5236 31.7198 91.5282 31.3318 91.5373 30.9301C91.5739 30.0903 91.7473 29.3919 92.0577 28.835C92.3772 28.269 92.8154 27.8491 93.3723 27.5752C93.9382 27.2922 94.591 27.1507 95.3304 27.1507C96.079 27.1507 96.7317 27.2922 97.2886 27.5752C97.8546 27.8491 98.2973 28.269 98.6168 28.835C98.9363 29.3919 99.1098 30.0903 99.1372 30.9301C99.1554 31.3318 99.1646 31.7198 99.1646 32.0941C99.1646 32.4592 99.1554 32.8426 99.1372 33.2443C99.1098 34.0933 98.9409 34.8008 98.6305 35.3668C98.3293 35.9236 97.9002 36.339 97.3433 36.6129C96.7865 36.8776 96.1155 37.01 95.3304 37.01ZM95.3304 35.846C96.0333 35.846 96.6039 35.6361 97.0421 35.2161C97.4894 34.7962 97.7313 34.1161 97.7678 33.1758C97.7861 32.765 97.7952 32.3999 97.7952 32.0804C97.7952 31.7517 97.7861 31.3866 97.7678 30.9849C97.7496 30.355 97.6309 29.8438 97.4118 29.4512C97.2018 29.0587 96.9188 28.7711 96.5628 28.5886C96.2068 28.406 95.796 28.3147 95.3304 28.3147C94.8831 28.3147 94.4814 28.406 94.1254 28.5886C93.7694 28.7711 93.4818 29.0587 93.2627 29.4512C93.0527 29.8438 92.9341 30.355 92.9067 30.9849C92.8976 31.3866 92.893 31.7517 92.893 32.0804C92.893 32.3999 92.8976 32.765 92.9067 33.1758C92.9432 34.1161 93.1851 34.7962 93.6324 35.2161C94.0797 35.6361 94.6457 35.846 95.3304 35.846ZM101.475 36.873C101.375 36.873 101.297 36.8457 101.243 36.7909C101.188 36.727 101.16 36.6494 101.16 36.5581V27.6163C101.16 27.5159 101.188 27.4383 101.243 27.3835C101.297 27.3196 101.375 27.2877 101.475 27.2877H102.105C102.215 27.2877 102.297 27.3151 102.352 27.3698C102.407 27.4155 102.439 27.452 102.448 27.4794L106.994 34.463V27.6163C106.994 27.5159 107.021 27.4383 107.076 27.3835C107.131 27.3196 107.208 27.2877 107.309 27.2877H107.966C108.066 27.2877 108.144 27.3196 108.199 27.3835C108.263 27.4383 108.295 27.5159 108.295 27.6163V36.5444C108.295 36.6357 108.263 36.7133 108.199 36.7772C108.144 36.8411 108.071 36.873 107.98 36.873H107.322C107.222 36.873 107.144 36.8457 107.09 36.7909C107.044 36.7361 107.012 36.6996 106.994 36.6813L102.461 29.7662V36.5581C102.461 36.6494 102.429 36.727 102.365 36.7909C102.311 36.8457 102.233 36.873 102.133 36.873H101.475Z" fill="white"/>
<path d="M61.9679 21.1569C56.357 21.1563 50.976 18.927 47.0084 14.9595C43.0409 10.9919 40.8117 5.61096 40.811 0L39.9915 0V21.1569L18.8346 21.1569V21.9764C24.4456 21.9771 29.8265 24.2063 33.7941 28.1738C37.7616 32.1414 39.9909 37.5224 39.9915 43.1333H40.811L40.811 21.9764L61.9679 21.9764V21.1569Z" fill="#B2FF00"/>
</svg>
