<svg width="80" height="80" viewBox="0 0 80 80" fill="none" xmlns="http://www.w3.org/2000/svg">
<rect width="79.2105" height="79.2105" rx="39.6053" fill="url(#paint0_linear_1427_525)" fill-opacity="0.05"/>
<rect x="9.69922" y="9.69922" width="59.812" height="59.812" rx="29.906" fill="url(#paint1_linear_1427_525)" fill-opacity="0.1"/>
<rect x="10.1034" y="10.1034" width="59.0038" height="59.0038" rx="29.5019" stroke="url(#paint2_linear_1427_525)" stroke-opacity="0.2" stroke-width="0.808271"/>
<path d="M53.8169 27.2589L51.6334 27.5709L51.9454 25.3873C52.081 24.4382 50.925 23.8581 50.246 24.5378L46.2401 28.5438C46.0869 28.697 45.9875 28.8958 45.9568 29.1103L45.5033 32.285L40.5574 37.2309C40.1657 37.0435 39.7326 36.9298 39.2702 36.9298C37.6135 36.9298 36.2657 38.2775 36.2657 39.9343C36.2657 41.591 37.6135 42.9387 39.2702 42.9387C40.9269 42.9387 42.2746 41.591 42.2746 39.9343C42.2746 39.4719 42.161 39.0387 41.9736 38.647L46.9195 33.7011L50.0941 33.2476C50.3086 33.2169 50.5074 33.1175 50.6607 32.9643L54.6666 28.9584C55.3435 28.2813 54.7704 27.1253 53.8169 27.2589Z" fill="#CAFF33"/>
<path d="M47.3943 36.0591L44.2214 39.2317C44.2541 39.4621 44.2768 39.6958 44.2768 39.9351C44.2768 42.6964 42.0307 44.9425 39.2694 44.9425C36.5082 44.9425 34.262 42.6964 34.262 39.9351C34.262 37.1739 36.5081 34.9278 39.2694 34.9278C39.5087 34.9278 39.7423 34.9504 39.9727 34.9831L43.1455 31.8103C41.9694 31.2469 40.6582 30.9219 39.2694 30.9219C34.2995 30.9219 30.2561 34.9653 30.2561 39.9352C30.2561 44.9051 34.2995 48.9485 39.2694 48.9485C44.2393 48.9485 48.2828 44.9051 48.2828 39.9352C48.2827 38.5463 47.9578 37.2352 47.3943 36.0591Z" fill="#CAFF33"/>
<path d="M52.8769 33.5804L52.0767 34.3806C51.6203 34.8373 51.0165 35.1392 50.3773 35.2304L49.2915 35.3856C49.9244 36.7742 50.2863 38.3113 50.2863 39.9343C50.2863 46.0087 45.3444 50.9506 39.27 50.9506C33.1956 50.9506 28.2537 46.0087 28.2537 39.9343C28.2537 33.8599 33.1957 28.918 39.27 28.918C40.893 28.918 42.4301 29.28 43.8187 29.9129L43.9739 28.8271C44.0651 28.1878 44.367 27.5841 44.8237 27.1273L45.6237 26.3274C43.6503 25.4032 41.4989 24.9121 39.27 24.9121C30.9866 24.9121 24.2478 31.651 24.2478 39.9343C24.2478 48.2177 30.9866 54.9566 39.27 54.9566C47.5534 54.9566 54.2923 48.2177 54.2923 39.9343C54.2923 37.7054 53.8012 35.5538 52.8769 33.5804Z" fill="#CAFF33"/>
<defs>
<linearGradient id="paint0_linear_1427_525" x1="39.6053" y1="0" x2="39.6053" y2="79.2105" gradientUnits="userSpaceOnUse">
<stop stop-color="#CAFF33"/>
<stop offset="1" stop-color="#CAFF33" stop-opacity="0"/>
</linearGradient>
<linearGradient id="paint1_linear_1427_525" x1="39.6052" y1="-29.906" x2="39.6052" y2="164.079" gradientUnits="userSpaceOnUse">
<stop stop-color="#CAFF33"/>
<stop offset="0.467671" stop-color="#CAFF33" stop-opacity="0"/>
</linearGradient>
<linearGradient id="paint2_linear_1427_525" x1="39.6052" y1="-94.1636" x2="39.6052" y2="123.665" gradientUnits="userSpaceOnUse">
<stop stop-color="#CAFF33"/>
<stop offset="0.716291" stop-color="#CAFF33" stop-opacity="0"/>
</linearGradient>
</defs>
</svg>
