<svg width="57" height="57" viewBox="0 0 57 57" fill="none" xmlns="http://www.w3.org/2000/svg">
<rect x="0.5" y="0.5" width="56" height="56" rx="13.75" stroke="#B2FF00"/>
<path d="M38.256 25.9957C38.4256 26.2385 38.5574 26.5105 38.6436 26.8013C38.6669 26.8797 38.676 26.9614 38.676 27.0432L38.6754 28.3013C38.6749 29.9197 39.2134 31.4432 40.14 32.6695C40.473 33.1101 40.4794 33.7398 40.0889 34.1303L34.7854 39.4337C34.395 39.8242 33.7627 39.8233 33.3706 39.4344C32.6349 38.7048 32.1707 38.2704 31.5042 37.755" stroke="#B2FF00" stroke-width="1.875" stroke-miterlimit="10" stroke-linecap="round" stroke-linejoin="round"/>
<path d="M43.3557 35.9836C43.7463 36.3741 43.7463 37.0073 43.3557 37.3978L38.0525 42.7011C37.6619 43.0916 37.0288 43.0916 36.6383 42.7011L34.7854 40.8484C34.3949 40.4579 34.3948 39.8247 34.7854 39.4341L40.0887 34.1309C40.4792 33.7403 41.1123 33.7403 41.5029 34.1308L43.3557 35.9836Z" stroke="#B2FF00" stroke-width="1.875" stroke-miterlimit="10" stroke-linecap="round" stroke-linejoin="round"/>
<path d="M26.4969 19.2451C26.7398 19.0755 27.0118 18.9438 27.3026 18.8575C27.381 18.8343 27.4627 18.8252 27.5444 18.8252L28.8026 18.8258C30.421 18.8263 31.9445 18.2878 33.1707 17.3611C33.6113 17.0281 34.241 17.0217 34.6316 17.4122L39.935 22.7157C40.3255 23.1062 40.3233 23.7397 39.9346 24.1318C38.136 25.946 38.1307 26.1111 34.3457 31.6183C33.9513 32.1208 33.4226 32.3633 32.8926 32.3926" stroke="#B2FF00" stroke-width="1.875" stroke-miterlimit="10" stroke-linecap="round" stroke-linejoin="round"/>
<path d="M36.4839 14.1443C36.8744 13.7538 37.5076 13.7538 37.8981 14.1443L43.2014 19.4476C43.5919 19.8381 43.592 20.4713 43.2015 20.8618L41.3487 22.7147C40.9582 23.1053 40.325 23.1053 39.9344 22.7147L34.6312 17.4114C34.2406 17.0209 34.2406 16.3877 34.6311 15.9972L36.4839 14.1443Z" stroke="#B2FF00" stroke-width="1.875" stroke-miterlimit="10" stroke-linecap="round" stroke-linejoin="round"/>
<path d="M29.0006 28.5002C29.7953 28.5491 30.5068 28.1311 30.8704 27.4841C31.1002 27.0752 31.4652 26.7133 31.8744 26.4842C33.0308 25.8368 33.3293 24.106 32.1181 23.1552C26.6069 19.3671 26.4333 19.3536 24.6317 17.5667C24.2396 17.1778 23.6059 17.1755 23.2153 17.566L17.9121 22.8693C17.5215 23.2598 17.528 23.8895 17.861 24.3301C18.7876 25.5564 19.3261 27.0799 19.3256 28.6983L19.325 29.9564C19.325 30.0382 19.3341 30.1199 19.3574 30.1983C19.4436 30.4891 19.5753 30.7611 19.745 31.0039" stroke="#B2FF00" stroke-width="1.875" stroke-miterlimit="10" stroke-linecap="round" stroke-linejoin="round"/>
<path d="M14.6445 21.0163C14.254 20.6258 14.254 19.9926 14.6445 19.6021L19.9478 14.2988C20.3383 13.9083 20.9715 13.9083 21.362 14.2988L23.2149 16.1516C23.6054 16.5421 23.6054 17.1753 23.2149 17.5658L17.9116 22.8691C17.5211 23.2596 16.8879 23.2596 16.4974 22.8691L14.6445 21.0163Z" stroke="#B2FF00" stroke-width="1.875" stroke-miterlimit="10" stroke-linecap="round" stroke-linejoin="round"/>
<path d="M23.6552 25.3822C19.8672 30.8934 19.8537 31.0667 18.0669 32.8682C17.678 33.2603 17.6757 33.8939 18.0662 34.2845L23.3695 39.5878C23.76 39.9783 24.3897 39.9719 24.8304 39.6389C26.0565 38.7124 27.5797 38.174 29.1979 38.1745L30.456 38.175C30.5379 38.175 30.6198 38.1658 30.6983 38.1425C31.6407 37.8626 32.3838 37.1068 32.5983 36.1424C32.7471 35.4738 32.6155 34.8974 32.2568 34.3902C32.0999 34.1682 32.1157 33.8691 32.3079 33.677C33.2978 32.6871 32.9569 31.1248 31.8739 30.5166C31.465 30.2869 31.1 29.9246 30.8703 29.5156C30.6875 29.1903 30.4169 28.9232 30.0927 28.7441C29.5656 28.4528 29.0469 27.934 28.7556 27.407C28.5764 27.0827 28.3092 26.8121 27.9839 26.6294C27.575 26.3996 27.213 26.0347 26.9838 25.6255C26.3364 24.4694 24.6061 24.1711 23.6552 25.3822Z" stroke="#B2FF00" stroke-width="1.875" stroke-miterlimit="10" stroke-linecap="round" stroke-linejoin="round"/>
<path d="M31.9324 34.0101L30.201 34.582" stroke="#B2FF00" stroke-width="1.875" stroke-miterlimit="10" stroke-linecap="round" stroke-linejoin="round"/>
<path d="M21.5173 42.8554C21.1267 43.2459 20.4936 43.2459 20.103 42.8554L14.7997 37.5521C14.4092 37.1616 14.4092 36.5284 14.7997 36.1379L16.6525 34.285C17.043 33.8944 17.6762 33.8944 18.0667 34.285L23.37 39.5883C23.7605 39.9788 23.7605 40.612 23.37 41.0025L21.5173 42.8554Z" stroke="#B2FF00" stroke-width="1.875" stroke-miterlimit="10" stroke-linecap="round" stroke-linejoin="round"/>
</svg>
