<svg width="80" height="80" viewBox="0 0 80 80" fill="none" xmlns="http://www.w3.org/2000/svg">
<rect width="79.2105" height="79.2105" rx="39.6053" fill="url(#paint0_linear_1427_546)" fill-opacity="0.05"/>
<rect x="9.69922" y="9.69922" width="59.812" height="59.812" rx="29.906" fill="url(#paint1_linear_1427_546)" fill-opacity="0.1"/>
<rect x="10.1034" y="10.1034" width="59.0038" height="59.0038" rx="29.5019" stroke="url(#paint2_linear_1427_546)" stroke-opacity="0.2" stroke-width="0.808271"/>
<g clip-path="url(#clip0_1427_546)">
<path d="M39.8925 40.9007C40.5117 40.9007 41.0138 40.3987 41.0138 39.7795C41.0138 39.1602 40.5117 38.6582 39.8925 38.6582C39.2732 38.6582 38.7712 39.1602 38.7712 39.7795C38.7712 40.3987 39.2732 40.9007 39.8925 40.9007Z" fill="#B2FF00"/>
<path d="M39.8923 33.7109C35.4143 33.7109 31.9598 39.1213 31.8149 39.3516C31.6501 39.614 31.6501 39.9468 31.8149 40.2093C31.9598 40.4395 35.4143 45.8499 39.8923 45.8499C44.3703 45.8499 47.8248 40.4395 47.9697 40.2093C48.1345 39.9468 48.1345 39.614 47.9697 39.3516C47.8248 39.1213 44.3703 33.7109 39.8923 33.7109ZM39.8923 42.5119C38.3862 42.5119 37.1608 41.2865 37.1608 39.7804C37.1608 38.2743 38.3862 37.0489 39.8923 37.0489C41.3984 37.0489 42.6238 38.2743 42.6238 39.7804C42.6238 41.2865 41.3984 42.5119 39.8923 42.5119Z" fill="#B2FF00"/>
<path d="M52.5408 38.8007H52.1264C51.7226 32.5526 46.6586 27.4886 40.4105 27.0848V26.6703C40.4105 26.2259 40.0498 25.8652 39.6053 25.8652C39.1609 25.8652 38.8002 26.2259 38.8002 26.6703V27.0848C32.5521 27.4886 27.4881 32.5526 27.0843 38.8007H26.6699C26.2252 38.8007 25.8647 39.1612 25.8647 39.6058C25.8647 40.0505 26.2252 40.4109 26.6699 40.4109H27.0843C27.4881 46.6591 32.5521 51.7231 38.8002 52.1269V52.5413C38.8002 52.9857 39.1609 53.3464 39.6053 53.3464C40.0498 53.3464 40.4105 52.9857 40.4105 52.5413V52.1269C46.6586 51.7231 51.7226 46.6591 52.1264 40.4109H52.5408C52.9855 40.4109 53.3459 40.0505 53.3459 39.6058C53.3459 39.1612 52.9855 38.8007 52.5408 38.8007ZM40.4105 50.5138V50.3332C40.4105 49.8887 40.0498 49.5281 39.6053 49.5281C39.1609 49.5281 38.8002 49.8887 38.8002 50.3332V50.5138C33.4098 50.1197 29.0915 45.8014 28.6973 40.4109H28.878C29.3227 40.4109 29.6831 40.0505 29.6831 39.6058C29.6831 39.1612 29.3227 38.8007 28.878 38.8007H28.6973C29.0915 33.4103 33.4098 29.092 38.8002 28.6978V28.8785C38.8002 29.3229 39.1609 29.6836 39.6053 29.6836C40.0498 29.6836 40.4105 29.3229 40.4105 28.8785V28.6978C45.8009 29.092 50.1192 33.4103 50.5133 38.8007H50.3327C49.888 38.8007 49.5276 39.1612 49.5276 39.6058C49.5276 40.0505 49.888 40.4109 50.3327 40.4109H50.5133C50.1192 45.8014 45.8009 50.1197 40.4105 50.5138Z" fill="#B2FF00"/>
</g>
<defs>
<linearGradient id="paint0_linear_1427_546" x1="39.6053" y1="0" x2="39.6053" y2="79.2105" gradientUnits="userSpaceOnUse">
<stop stop-color="#CAFF33"/>
<stop offset="1" stop-color="#CAFF33" stop-opacity="0"/>
</linearGradient>
<linearGradient id="paint1_linear_1427_546" x1="39.6052" y1="-29.906" x2="39.6052" y2="164.079" gradientUnits="userSpaceOnUse">
<stop stop-color="#CAFF33"/>
<stop offset="0.467671" stop-color="#CAFF33" stop-opacity="0"/>
</linearGradient>
<linearGradient id="paint2_linear_1427_546" x1="39.6052" y1="-94.1636" x2="39.6052" y2="123.665" gradientUnits="userSpaceOnUse">
<stop stop-color="#CAFF33"/>
<stop offset="0.716291" stop-color="#CAFF33" stop-opacity="0"/>
</linearGradient>
<clipPath id="clip0_1427_546">
<rect width="27.4812" height="27.4812" fill="white" transform="translate(25.8646 25.8652)"/>
</clipPath>
</defs>
</svg>
