<svg width="80" height="80" viewBox="0 0 80 80" fill="none" xmlns="http://www.w3.org/2000/svg">
<rect width="79.2105" height="79.2105" rx="39.6053" fill="url(#paint0_linear_1427_558)" fill-opacity="0.05"/>
<rect x="9.69922" y="9.69922" width="59.812" height="59.812" rx="29.906" fill="url(#paint1_linear_1427_558)" fill-opacity="0.1"/>
<rect x="10.1034" y="10.1034" width="59.0038" height="59.0038" rx="29.5019" stroke="url(#paint2_linear_1427_558)" stroke-opacity="0.2" stroke-width="0.808271"/>
<path d="M39.6051 33.373C38.2984 33.373 37.0211 33.7605 35.9346 34.4865C34.8482 35.2124 34.0014 36.2442 33.5013 37.4515C33.0013 38.6587 32.8704 39.987 33.1254 41.2686C33.3803 42.5502 34.0095 43.7274 34.9335 44.6513C35.8574 45.5753 37.0346 46.2045 38.3162 46.4594C39.5978 46.7144 40.9261 46.5835 42.1333 46.0835C43.3406 45.5834 44.3724 44.7366 45.0983 43.6502C45.8243 42.5637 46.2117 41.2864 46.2117 39.9797C46.2117 38.2275 45.5157 36.5471 44.2767 35.3081C43.0377 34.0691 41.3573 33.373 39.6051 33.373ZM40.1556 44.4943C40.1371 44.5823 40.0974 44.6645 40.0398 44.7336C39.9822 44.8027 39.9086 44.8566 39.8253 44.8907C39.7116 44.9372 39.5855 44.9443 39.4673 44.911C39.349 44.8776 39.2453 44.8056 39.1727 44.7064C39.1001 44.6073 39.0627 44.4867 39.0666 44.3639C39.0704 44.2411 39.1152 44.1231 39.1939 44.0286C39.2726 43.9342 39.3806 43.8689 39.5007 43.8429C39.6208 43.817 39.7461 43.832 39.8567 43.8856C39.9674 43.9391 40.0569 44.0281 40.111 44.1384C40.1652 44.2487 40.1809 44.374 40.1556 44.4943ZM40.8218 40.2495C40.0125 40.6404 40.1556 41.2735 40.1556 42.1819C40.1556 42.328 40.0976 42.468 39.9944 42.5712C39.8911 42.6745 39.7511 42.7325 39.6051 42.7325C39.4591 42.7325 39.319 42.6745 39.2158 42.5712C39.1125 42.468 39.0545 42.328 39.0545 42.1819C39.0545 41.0808 38.9169 39.9522 40.3263 39.264C40.5916 39.1352 40.8176 38.9377 40.9808 38.6921C41.144 38.4464 41.2385 38.1615 41.2544 37.8671C41.2702 37.5726 41.207 37.2792 41.0711 37.0174C40.9353 36.7556 40.7319 36.535 40.4819 36.3784C40.232 36.2218 39.9447 36.1351 39.6499 36.1271C39.3551 36.1191 39.0635 36.1901 38.8054 36.3329C38.5474 36.4757 38.3323 36.685 38.1824 36.939C38.0326 37.1931 37.9535 37.4826 37.9534 37.7775C37.9534 37.9235 37.8954 38.0635 37.7922 38.1668C37.6889 38.27 37.5489 38.328 37.4029 38.328C37.2568 38.328 37.1168 38.27 37.0136 38.1668C36.9103 38.0635 36.8523 37.9235 36.8523 37.7775C36.8518 37.286 36.983 36.8033 37.2321 36.3796C37.4812 35.9559 37.8392 35.6066 38.269 35.368C38.6987 35.1294 39.1845 35.0103 39.6759 35.0229C40.1673 35.0356 40.6463 35.1796 41.0632 35.4399C41.4801 35.7003 41.8197 36.0675 42.0467 36.5035C42.2737 36.9394 42.3798 37.4282 42.3541 37.9191C42.3283 38.4099 42.1716 38.8849 41.9002 39.2947C41.6288 39.7045 41.2527 40.0342 40.8108 40.2495H40.8218Z" fill="#B2FF00"/>
<path d="M48.7609 36.2068C48.59 35.8059 48.5131 35.3713 48.536 34.9362C48.5589 34.5011 48.681 34.0769 48.893 33.6962C49.851 31.9675 49.6803 32.1437 47.9791 30.4424C46.7624 29.2257 45.8154 31.8298 43.3985 30.8333C40.9815 29.8368 42.1047 27.3153 40.4255 27.3153C38.0526 27.3153 38.0251 27.0675 37.4855 28.967C37.3654 29.3839 37.1527 29.7685 36.8634 30.0919C36.5741 30.4153 36.2155 30.6692 35.8144 30.8349C35.4133 31.0005 34.9801 31.0735 34.5468 31.0484C34.1136 31.0234 33.6916 30.9009 33.3123 30.6902C31.5505 29.7102 31.7102 29.9635 30.0695 31.6041C28.8473 32.8319 31.4569 33.7733 30.4549 36.1902C29.4529 38.6072 26.9424 37.473 26.9424 39.1577V40.8094C26.9424 42.5547 29.4584 41.36 30.4604 43.7934C31.4294 46.1333 28.8748 47.1683 30.0695 48.363C31.7542 50.0147 31.5891 50.2404 33.3233 49.2769C33.7032 49.0657 34.126 48.9436 34.56 48.9197C34.9939 48.8959 35.4277 48.971 35.8283 49.1393C38.1737 50.0973 37.0946 52.6408 38.7848 52.6408H40.4365C42.1763 52.6408 40.9871 50.1248 43.4205 49.1228C45.7604 48.1538 46.7954 50.7029 47.9901 49.5137C49.6418 47.829 49.8675 47.9942 48.904 46.2599C48.6921 45.8792 48.5699 45.4551 48.547 45.02C48.5241 44.5848 48.6011 44.1502 48.7719 43.7494C49.7299 41.404 52.2679 42.4941 52.2679 40.7984V39.1467C52.2679 37.4235 49.7464 38.5962 48.7609 36.2068ZM39.6052 47.6858C38.0807 47.6858 36.5905 47.2338 35.3229 46.3869C34.0554 45.5399 33.0675 44.3361 32.4841 42.9277C31.9007 41.5193 31.7481 39.9695 32.0455 38.4744C32.3429 36.9792 33.077 35.6058 34.1549 34.5278C35.2329 33.4499 36.6063 32.7158 38.1014 32.4184C39.5966 32.121 41.1464 32.2736 42.5548 32.857C43.9632 33.4404 45.167 34.4283 46.0139 35.6959C46.8609 36.9634 47.3129 38.4536 47.3129 39.9781C47.3129 42.0223 46.5009 43.9828 45.0554 45.4283C43.6099 46.8738 41.6494 47.6858 39.6052 47.6858Z" fill="#B2FF00"/>
<defs>
<linearGradient id="paint0_linear_1427_558" x1="39.6053" y1="0" x2="39.6053" y2="79.2105" gradientUnits="userSpaceOnUse">
<stop stop-color="#CAFF33"/>
<stop offset="1" stop-color="#CAFF33" stop-opacity="0"/>
</linearGradient>
<linearGradient id="paint1_linear_1427_558" x1="39.6052" y1="-29.906" x2="39.6052" y2="164.079" gradientUnits="userSpaceOnUse">
<stop stop-color="#CAFF33"/>
<stop offset="0.467671" stop-color="#CAFF33" stop-opacity="0"/>
</linearGradient>
<linearGradient id="paint2_linear_1427_558" x1="39.6052" y1="-94.1636" x2="39.6052" y2="123.665" gradientUnits="userSpaceOnUse">
<stop stop-color="#CAFF33"/>
<stop offset="0.716291" stop-color="#CAFF33" stop-opacity="0"/>
</linearGradient>
</defs>
</svg>
